<svg width="89" height="89" viewBox="0 0 89 89" fill="none" xmlns="http://www.w3.org/2000/svg">
<g clip-path="url(#clip0)">
<path d="M69.1252 46.7807L68.8302 46.1197C67.6997 43.6227 66.5314 41.0356 66.5864 35.3827V23.5481C66.5864 22.9534 66.102 22.4701 65.5084 22.4701C64.9148 22.4701 64.4307 22.9531 64.4307 23.5481V35.3724C64.3675 41.4902 65.6937 44.4228 66.8644 47.0082L67.1569 47.6565C69.0833 51.9996 69.4329 55.4626 68.1699 57.6815C66.8602 59.9765 64.159 60.3364 64.1949 60.3406H20.8289C15.5709 60.1909 14.209 57.1301 14.2343 55.3447C14.2471 54.3299 14.6658 53.6837 14.9458 53.6837C17.5973 53.6837 22.2174 53.1807 24.4225 52.7423C31.1962 51.416 44.4266 44.4183 48.134 37.8468C49.2518 35.872 49.6877 31.3089 49.4685 23.8973L49.454 23.4077C49.454 22.8131 48.9717 22.3297 48.376 22.3297C47.7824 22.3297 47.2983 22.8127 47.2983 23.4077L47.3128 23.9592C47.5784 33.0203 46.7635 35.8823 46.2559 36.7844C42.9403 42.6664 30.4204 49.3655 24.0066 50.6264C21.8962 51.0371 17.4783 51.5232 14.9455 51.5232C13.316 51.5232 12.1107 53.1129 12.0782 55.3108C12.0309 58.6537 14.7276 62.321 20.7961 62.4935L64.3125 62.4873C64.4684 62.4683 68.1377 62.0409 70.0224 58.7713C71.6833 55.9051 71.3825 51.8714 69.1252 46.7807Z" fill="white"/>
<path d="M51.8664 51.1135C52.8981 51.2673 53.8516 51.3451 54.7319 51.3451C57.5548 51.3451 59.6013 50.5454 60.8411 48.9582C63.4666 45.5851 61.2076 40.0958 61.1108 39.8631C60.8833 39.3158 60.2454 39.0569 59.7022 39.2851C59.1508 39.5136 58.8939 40.1484 59.1231 40.6957C59.6493 41.9514 60.6834 45.6484 59.14 47.6274C58.0285 49.0505 55.6899 49.5093 52.1886 48.9789C51.6036 48.8821 51.0518 49.2946 50.9633 49.8795C50.8727 50.4735 51.2793 51.025 51.8664 51.1135Z" fill="white"/>
<path d="M21.4149 56.9678C22.1404 56.9678 22.7286 56.3796 22.7286 55.654C22.7286 54.9284 22.1404 54.3402 21.4149 54.3402C20.6893 54.3402 20.1011 54.9284 20.1011 55.654C20.1011 56.3796 20.6893 56.9678 21.4149 56.9678Z" fill="white"/>
<path d="M47.2098 47.9012C47.9354 47.9012 48.5235 47.313 48.5235 46.5875C48.5235 45.8619 47.9354 45.2737 47.2098 45.2737C46.4842 45.2737 45.896 45.8619 45.896 46.5875C45.896 47.313 46.4842 47.9012 47.2098 47.9012Z" fill="white"/>
<path d="M50.9505 43.7253C51.6761 43.7253 52.2643 43.1371 52.2643 42.4116C52.2643 41.686 51.6761 41.0978 50.9505 41.0978C50.2249 41.0978 49.6367 41.686 49.6367 42.4116C49.6367 43.1371 50.2249 43.7253 50.9505 43.7253Z" fill="white"/>
<path d="M57.8426 55.6539C58.5682 55.6539 59.1564 55.0657 59.1564 54.3401C59.1564 53.6146 58.5682 53.0264 57.8426 53.0264C57.117 53.0264 56.5288 53.6146 56.5288 54.3401C56.5288 55.0657 57.117 55.6539 57.8426 55.6539Z" fill="white"/>
<path d="M50.9505 58.2815C51.6761 58.2815 52.2643 57.6933 52.2643 56.9677C52.2643 56.2421 51.6761 55.6539 50.9505 55.6539C50.2249 55.6539 49.6367 56.2421 49.6367 56.9677C49.6367 57.6933 50.2249 58.2815 50.9505 58.2815Z" fill="white"/>
<path d="M25.8314 59.5952C26.5569 59.5952 27.1451 59.007 27.1451 58.2814C27.1451 57.5558 26.5569 56.9677 25.8314 56.9677C25.1058 56.9677 24.5176 57.5558 24.5176 58.2814C24.5176 59.007 25.1058 59.5952 25.8314 59.5952Z" fill="white"/>
<path d="M30.2479 55.654C30.9734 55.654 31.5616 55.0658 31.5616 54.3403C31.5616 53.6147 30.9734 53.0265 30.2479 53.0265C29.5223 53.0265 28.9341 53.6147 28.9341 54.3403C28.9341 55.0658 29.5223 55.654 30.2479 55.654Z" fill="white"/>
<path d="M64.4207 56.9676C65.1463 56.9676 65.7345 56.3794 65.7345 55.6539C65.7345 54.9283 65.1463 54.3401 64.4207 54.3401C63.6951 54.3401 63.1069 54.9283 63.1069 55.6539C63.1069 56.3794 63.6951 56.9676 64.4207 56.9676Z" fill="white"/>
<path d="M44.5404 53.0264C44.5404 50.8532 42.7723 49.0851 40.599 49.0851C38.4258 49.0851 36.6577 50.8532 36.6577 53.0264C36.6577 55.1997 38.4258 56.9677 40.599 56.9677C42.7723 56.9677 44.5404 55.1997 44.5404 53.0264ZM39.2853 53.0264C39.2853 52.302 39.8746 51.7126 40.599 51.7126C41.3235 51.7126 41.9128 52.302 41.9128 53.0264C41.9128 53.7508 41.3235 54.3402 40.599 54.3402C39.8746 54.3402 39.2853 53.7508 39.2853 53.0264Z" fill="white"/>
</g>
<circle cx="44.3345" cy="44.9296" r="42.9985" stroke="white" stroke-width="2"/>
<defs>
<clipPath id="clip0">
<rect width="59" height="59" fill="white" transform="translate(12.0776 12.9125)"/>
</clipPath>
</defs>
</svg>
