<svg width="89" height="89" viewBox="0 0 89 89" fill="none" xmlns="http://www.w3.org/2000/svg">
<circle cx="44.3744" cy="44.7838" r="42.9984" stroke="white" stroke-width="2"/>
<g clip-path="url(#clip0)">
<path d="M53.5525 21.2095C34.3157 17.8343 34.8991 17.5533 34.3529 18.0324C34.263 18.1113 34.1906 18.2097 34.141 18.3208C34.0914 18.432 34.0656 18.553 34.0656 18.6756C34.0656 21.9995 35.2749 22.7836 37.8417 23.6755C39.9771 24.4176 46.8845 27.1893 48.3066 27.7612L55.8282 40.7545C55.7925 41.9022 55.4889 47.1015 52.9306 49.1018C51.7431 50.0303 48.7485 48.7799 44.7136 45.6719C41.3128 43.0522 38.4508 40.1282 38.3854 40.068C37.7182 39.4456 36.891 39.0402 36.0056 38.9016C35.1203 38.763 34.2154 38.8973 33.4022 39.2879C30.3355 40.7297 29.7565 44.8405 32.0658 47.1789L42.2366 57.4809C42.6204 58.6036 44.2723 63.2852 45.5885 64.6567C47.455 66.6026 49.3447 67.1806 50.321 67.3521L51.0114 70.9512C51.2207 72.0421 52.8016 71.7123 52.5925 70.6215L51.7863 66.419C51.5275 65.0698 49.7255 66.5923 46.7287 63.468C45.8596 62.562 44.4065 58.8588 43.6947 56.7372C43.5757 56.3824 44.0326 56.9999 33.1893 45.9726C32.833 45.6134 32.5667 45.1685 32.4139 44.6769C32.2611 44.1854 32.2264 43.6622 32.3129 43.1534C32.3993 42.6446 32.6043 42.1657 32.9098 41.7588C33.2154 41.3519 33.612 41.0295 34.065 40.8198C34.5917 40.5609 35.18 40.4698 35.7561 40.5578C36.3323 40.6458 36.8707 40.909 37.304 41.3145C40.6927 44.7527 50.1064 53.4112 53.8981 50.4466C57.1934 47.8699 57.7079 40.7478 57.3294 40.0943C49.136 26.0629 49.6207 26.4887 49.1451 26.2966C48.8038 26.1591 40.7607 22.9179 38.3516 22.0807C36.4973 21.4361 35.8794 21.0849 35.7229 19.683L52.9692 22.81L57.1384 28.3994C57.7928 29.2767 59.0664 28.2458 58.4113 27.3674C53.8753 21.4099 54.1045 21.3095 53.5525 21.2095Z" fill="white"/>
<path d="M69.5099 70.5662L67.1124 61.4008L65.5054 37.1093C65.4752 36.6544 65.4159 36.8354 62.3656 32.6681C61.7106 31.7912 60.4376 32.822 61.0929 33.7003L63.9138 37.4808C65.6132 63.0857 65.4958 61.6096 65.5358 61.7619L67.9544 71.0075C68.2349 72.0812 69.7903 71.6384 69.5099 70.5662Z" fill="white"/>
<path d="M32.4532 27.0806C32.4532 25.9694 30.8408 25.9678 30.8408 27.0806C30.8408 28.1919 32.4532 28.1934 32.4532 27.0806Z" fill="white"/>
<path d="M59.0581 30.4427C59.0581 31.5539 60.6705 31.5555 60.6705 30.4427C60.6705 29.3314 59.0581 29.3298 59.0581 30.4427Z" fill="white"/>
<path d="M28.4225 24.5591C27.3567 24.5591 27.3551 26.2401 28.4225 26.2401C29.4884 26.2401 29.4899 24.5591 28.4225 24.5591Z" fill="white"/>
<path d="M27.6162 28.7618C27.6162 29.873 29.2286 29.8746 29.2286 28.7618C29.2286 27.6505 27.6162 27.6489 27.6162 28.7618Z" fill="white"/>
<path d="M25.1974 29.6021C24.1316 29.6021 24.13 31.2831 25.1974 31.2831C26.2633 31.2831 26.2648 29.6021 25.1974 29.6021Z" fill="white"/>
<path d="M24.3916 27.0806C24.3916 28.1919 26.004 28.1934 26.004 27.0806C26.004 25.9694 24.3916 25.9678 24.3916 27.0806Z" fill="white"/>
<path d="M24.3916 23.7188C24.3916 24.83 26.004 24.8316 26.004 23.7188C26.004 22.6075 24.3916 22.606 24.3916 23.7188Z" fill="white"/>
<path d="M21.1665 28.7616C21.1665 29.8728 22.7789 29.8744 22.7789 28.7616C22.7789 28.2974 21.1665 27.6487 21.1665 28.7616Z" fill="white"/>
<path d="M21.1665 32.1236C21.1665 33.2348 22.7789 33.2364 22.7789 32.1236C22.7789 31.0123 21.1665 31.0108 21.1665 32.1236Z" fill="white"/>
<path d="M21.9728 24.5591C20.9069 24.5591 20.9054 26.2401 21.9728 26.2401C23.0387 26.2401 23.0402 24.5591 21.9728 24.5591Z" fill="white"/>
<path d="M21.1665 22.0377C21.1665 23.149 22.7789 23.1506 22.7789 22.0377C22.7789 20.9249 21.1665 20.9249 21.1665 22.0377Z" fill="white"/>
<path d="M17.9419 27.0806C17.9419 28.1919 19.5543 28.1934 19.5543 27.0806C19.5543 25.9694 17.9419 25.9678 17.9419 27.0806Z" fill="white"/>
<path d="M18.7482 29.6021C17.6823 29.6021 17.6808 31.2831 18.7482 31.2831C19.8156 31.2831 19.8156 29.6021 18.7482 29.6021Z" fill="white"/>
<path d="M17.9419 33.8045C17.9419 34.9157 19.5543 34.9173 19.5543 33.8045C19.5543 32.6932 17.9419 32.6917 17.9419 33.8045Z" fill="white"/>
<path d="M18.7482 22.8779C17.6823 22.8779 17.6808 24.5589 18.7482 24.5589C19.8156 24.5589 19.8156 22.8779 18.7482 22.8779Z" fill="white"/>
<path d="M18.7482 19.5161C17.6823 19.5161 17.6808 21.1971 18.7482 21.1971C19.8156 21.1971 19.8156 19.5161 18.7482 19.5161Z" fill="white"/>
<path d="M31.6471 38.0072V34.6452C31.6476 34.1996 31.8176 33.7723 32.1199 33.4572C32.4222 33.142 32.832 32.9648 33.2595 32.9642H38.0966V37.1667C38.0966 38.2781 39.709 38.2795 39.709 37.1667V32.9642H44.5462C44.9737 32.9648 45.3835 33.142 45.6858 33.4572C45.9881 33.7723 46.1581 34.1996 46.1586 34.6452V40.5288H42.9338C41.868 40.5288 41.8664 42.2098 42.9338 42.2098H46.1586V43.8908C46.1586 45.0021 47.771 45.0035 47.771 43.8908V34.6452C47.77 33.7539 47.43 32.8993 46.8254 32.269C46.2209 31.6388 45.4012 31.2842 44.5462 31.2832H42.9338V27.9212C42.9338 26.8099 41.3214 26.8085 41.3214 27.9212V31.2832H36.4842V25.3997C36.4842 24.2883 34.8718 24.287 34.8718 25.3997V31.2832H33.2595C32.4045 31.2842 31.5848 31.6388 30.9802 32.269C30.3757 32.8993 30.0356 33.7539 30.0347 34.6452V38.0072C30.0347 39.1186 31.6471 39.12 31.6471 38.0072Z" fill="white"/>
<path d="M46.9648 67.4247C46.751 67.4247 46.5459 67.5133 46.3947 67.6709C46.2435 67.8285 46.1586 68.0423 46.1586 68.2652C46.1581 68.7109 45.9881 69.1381 45.6858 69.4533C45.3835 69.7684 44.9737 69.9457 44.5462 69.9462H33.2595C32.832 69.9457 32.4222 69.7684 32.1199 69.4533C31.8176 69.1381 31.6476 68.7109 31.6471 68.2652V48.9336C31.6471 47.8223 30.0347 47.8209 30.0347 48.9336V68.2652C30.0356 69.1566 30.3757 70.0111 30.9802 70.6414C31.5848 71.2717 32.4045 71.6262 33.2595 71.6272H44.5462C47.6213 71.6272 48.6578 67.4247 46.9648 67.4247Z" fill="white"/>
</g>
<defs>
<clipPath id="clip0">
<rect width="51.5966" height="53.7922" fill="white" transform="translate(17.9419 17.835)"/>
</clipPath>
</defs>
</svg>
