<svg width="89" height="89" viewBox="0 0 89 89" fill="none" xmlns="http://www.w3.org/2000/svg">
<circle cx="44.3286" cy="44.9296" r="42.9985" stroke="white" stroke-width="2"/>
<g clip-path="url(#clip0)">
<path d="M44.3286 61.8046C35.0237 61.8046 27.4536 54.2345 27.4536 44.9296C27.4536 35.6246 35.0237 28.0546 44.3286 28.0546C53.6335 28.0546 61.2036 35.6246 61.2036 44.9296C61.2036 54.2345 53.6335 61.8046 44.3286 61.8046ZM44.3286 31.8046C37.0915 31.8046 31.2036 37.6924 31.2036 44.9296C31.2036 52.1667 37.0915 58.0546 44.3286 58.0546C51.5658 58.0546 57.4536 52.1667 57.4536 44.9296C57.4536 37.6924 51.5658 31.8046 44.3286 31.8046Z" fill="white"/>
<path d="M44.3286 24.3046C43.293 24.3046 42.4536 23.465 42.4536 22.4296V16.8046C42.4536 15.7691 43.293 14.9296 44.3286 14.9296C45.3642 14.9296 46.2036 15.7691 46.2036 16.8046V22.4296C46.2036 23.465 45.3642 24.3046 44.3286 24.3046Z" fill="white"/>
<path d="M44.3286 74.9296C43.293 74.9296 42.4536 74.09 42.4536 73.0546V67.4296C42.4536 66.3941 43.293 65.5546 44.3286 65.5546C45.3642 65.5546 46.2036 66.3941 46.2036 67.4296V73.0546C46.2036 74.09 45.3642 74.9296 44.3286 74.9296Z" fill="white"/>
<path d="M72.4536 46.8046H66.8286C65.793 46.8046 64.9536 45.965 64.9536 44.9296C64.9536 43.8941 65.793 43.0546 66.8286 43.0546H72.4536C73.4892 43.0546 74.3286 43.8941 74.3286 44.9296C74.3286 45.965 73.4892 46.8046 72.4536 46.8046Z" fill="white"/>
<path d="M21.8286 46.8046H16.2036C15.168 46.8046 14.3286 45.965 14.3286 44.9296C14.3286 43.8941 15.168 43.0546 16.2036 43.0546H21.8286C22.8642 43.0546 23.7036 43.8941 23.7036 44.9296C23.7036 45.965 22.8642 46.8046 21.8286 46.8046Z" fill="white"/>
<path d="M60.2384 30.8946C58.583 30.8946 57.728 28.8783 58.9126 27.6938L62.8901 23.7163C63.6224 22.9841 64.8096 22.984 65.5417 23.7163C66.274 24.4485 66.274 25.6357 65.5417 26.3679L61.5642 30.3454C61.198 30.7116 60.7181 30.8946 60.2384 30.8946Z" fill="white"/>
<path d="M24.4415 66.6919C22.7861 66.6919 21.9311 64.6756 23.1158 63.4911L27.0932 59.5136C27.8256 58.7814 29.0129 58.7814 29.7448 59.5136C30.4771 60.2458 30.4771 61.433 29.7448 62.1652L25.7672 66.1428C25.4012 66.5088 24.9214 66.6919 24.4415 66.6919Z" fill="white"/>
<path d="M64.2162 66.692C63.7363 66.692 63.2566 66.509 62.8905 66.1429L58.913 62.1654C58.1807 61.4331 58.1807 60.246 58.913 59.5138C59.6452 58.7815 60.8324 58.7815 61.5646 59.5138L65.5421 63.4913C66.7266 64.6756 65.8716 66.692 64.2162 66.692Z" fill="white"/>
<path d="M28.4185 30.8947C27.9386 30.8947 27.4588 30.7116 27.0927 30.3455L23.1151 26.3681C22.3828 25.6358 22.3828 24.4487 23.1151 23.7165C23.8473 22.9842 25.0346 22.9842 25.7667 23.7165L29.7442 27.6939C30.9289 28.8783 30.0739 30.8947 28.4185 30.8947Z" fill="white"/>
</g>
<defs>
<clipPath id="clip0">
<rect width="60" height="60" fill="white" transform="translate(14.3286 14.9296)"/>
</clipPath>
</defs>
</svg>
