<svg width="89" height="89" viewBox="0 0 89 89" fill="none" xmlns="http://www.w3.org/2000/svg">
<circle cx="44.6556" cy="44.7838" r="42.9984" stroke="white" stroke-width="2"/>
<g clip-path="url(#clip0)">
<path d="M53.2431 50.0985C52.7426 49.5979 52.0771 49.3223 51.3693 49.3223C50.6614 49.3223 49.996 49.5979 49.4955 50.0984C48.9949 50.5989 48.7192 51.2643 48.7192 51.9722C48.7192 52.68 48.9949 53.3454 49.4955 53.846C49.9959 54.3464 50.6614 54.6222 51.3693 54.6222C52.0771 54.6222 52.7425 54.3465 53.2431 53.846C53.7436 53.3454 54.0193 52.68 54.0193 51.9722C54.0193 51.2643 53.7436 50.599 53.2431 50.0985ZM52.0488 52.6517C51.8672 52.8331 51.626 52.9331 51.3694 52.9331C51.1127 52.9331 50.8715 52.8331 50.69 52.6515C50.5085 52.47 50.4086 52.2288 50.4086 51.9722C50.4086 51.7155 50.5085 51.4743 50.69 51.2928C50.8715 51.1113 51.1127 51.0114 51.3694 51.0114C51.626 51.0114 51.8672 51.1113 52.0488 51.2929C52.2303 51.4743 52.3302 51.7157 52.3302 51.9723C52.3302 52.2289 52.2302 52.4701 52.0488 52.6517Z" fill="white"/>
<path d="M42.343 54.621C43.0216 54.621 43.7003 54.3628 44.2169 53.8462C45.2501 52.8129 45.2501 51.1319 44.2169 50.0986C43.1836 49.0654 41.5025 49.0655 40.4692 50.0986C39.436 51.1318 39.436 52.8129 40.4692 53.8462C40.9859 54.3627 41.6645 54.621 42.343 54.621ZM41.6637 51.2929C42.0383 50.9184 42.6479 50.9182 43.0225 51.2929C43.3972 51.6675 43.3972 52.2771 43.0225 52.6516C42.648 53.0263 42.0384 53.0264 41.6637 52.6516C41.289 52.2771 41.289 51.6675 41.6637 51.2929Z" fill="white"/>
<path d="M51.3693 63.6489C52.0771 63.6489 52.7425 63.3733 53.2431 62.8727C53.7436 62.3722 54.0193 61.7068 54.0193 60.9989C54.0193 60.291 53.7436 59.6256 53.2431 59.1251C52.7426 58.6245 52.0771 58.3489 51.3693 58.3489C50.6614 58.3489 49.996 58.6245 49.4955 59.125C48.9949 59.6255 48.7192 60.2909 48.7192 60.9988C48.7192 61.7065 48.9949 62.3721 49.4955 62.8726C49.996 63.3733 50.6615 63.6489 51.3693 63.6489ZM50.6899 60.3196C50.8714 60.1381 51.1126 60.0382 51.3693 60.0382C51.6259 60.0382 51.8671 60.1381 52.0486 60.3196C52.2302 60.5011 52.33 60.7424 52.33 60.999C52.33 61.2557 52.2302 61.4969 52.0486 61.6784C51.8671 61.8598 51.6259 61.9598 51.3693 61.9598C51.1126 61.9598 50.8714 61.8598 50.6899 61.6783C50.5084 61.4967 50.4085 61.2555 50.4085 60.9989C50.4085 60.7424 50.5084 60.5011 50.6899 60.3196Z" fill="white"/>
<path d="M40.4687 62.873C40.9854 63.3895 41.664 63.6479 42.3426 63.6479C43.0211 63.6479 43.6997 63.3897 44.2164 62.873C44.5462 62.5432 44.5462 62.0084 44.2164 61.6787C43.8867 61.3489 43.3519 61.3489 43.022 61.6787C42.6475 62.0533 42.0379 62.0534 41.6632 61.6787C41.2885 61.304 41.2885 60.6945 41.6632 60.3199C41.993 59.9901 41.993 59.4553 41.6632 59.1255C41.3333 58.7957 40.7986 58.7958 40.4688 59.1255C39.4355 60.1586 39.4355 61.8398 40.4687 62.873Z" fill="white"/>
<path d="M49.5064 56.4856C49.5064 55.0244 48.3176 53.8357 46.8565 53.8357C45.3954 53.8357 44.2065 55.0245 44.2065 56.4856C44.2065 57.9467 45.3954 59.1355 46.8565 59.1355C48.3176 59.1355 49.5064 57.9468 49.5064 56.4856ZM46.8565 57.4464C46.3266 57.4464 45.8957 57.0154 45.8957 56.4856C45.8957 55.9559 46.3267 55.5248 46.8565 55.5248C47.3862 55.5248 47.8172 55.9559 47.8172 56.4856C47.8172 57.0154 47.3862 57.4464 46.8565 57.4464Z" fill="white"/>
<path d="M64.0068 53.8355C62.8408 53.8355 61.8492 54.5926 61.4956 55.6408H59.4064C59.37 55.1048 59.2987 54.5747 59.1952 54.0534L60.1532 53.7966C60.6037 53.6759 60.8711 53.2127 60.7504 52.7622C60.6296 52.3116 60.1667 52.0443 59.7159 52.165L58.7562 52.4222C58.5828 51.9164 58.3772 51.4228 58.142 50.9443L59.9571 49.8963C60.26 50.1638 60.6213 50.3617 61.0231 50.4693C61.2514 50.5305 61.483 50.5608 61.7133 50.5608C62.1724 50.5608 62.6256 50.4403 63.0339 50.2046C64.2994 49.4741 64.7345 47.8502 64.0039 46.5847C63.2731 45.3192 61.6492 44.8842 60.3839 45.6147C59.3743 46.1976 58.894 47.3492 59.1119 48.4337L57.2973 49.4814C57.0006 49.0384 56.6762 48.6137 56.3248 48.2104L57.0274 47.5079C57.3572 47.1781 57.3572 46.6433 57.0274 46.3135C56.6977 45.9837 56.1629 45.9837 55.8331 46.3135L55.1321 47.0145C54.7324 46.6641 54.3092 46.3369 53.8633 46.0369L54.907 44.2292C55.0795 44.2639 55.2536 44.2813 55.4269 44.2813C56.3434 44.2813 57.2359 43.8059 57.7262 42.9569C58.4567 41.6915 58.0217 40.0675 56.7563 39.3369C55.491 38.6063 53.867 39.0414 53.1364 40.3069C52.7825 40.9199 52.6885 41.634 52.8717 42.3177C52.9793 42.7195 53.1772 43.0807 53.4447 43.3836L51.9919 45.9001C51.7586 46.304 51.897 46.8206 52.301 47.0538C52.3079 47.0579 52.3154 47.0606 52.3225 47.0644C55.6683 49.0105 57.7462 52.6181 57.7462 56.4851C57.7462 62.4901 52.8607 67.3756 46.8559 67.3756C40.8509 67.3756 35.9654 62.4901 35.9654 56.4851C35.9654 50.4802 40.8509 45.5948 46.8559 45.5948C47.8125 45.5948 48.7613 45.7188 49.676 45.9633C50.1272 46.0837 50.5896 45.8161 50.7101 45.3654C50.7107 45.3633 51.1762 43.6249 51.1762 43.6249C51.2969 43.1743 51.0295 42.7111 50.5789 42.5904C50.1289 42.4698 49.6654 42.737 49.5445 43.1876L49.2889 44.1414C48.7655 44.0389 48.2349 43.9695 47.7004 43.934V41.8452C48.7486 41.4917 49.5058 40.5 49.5058 39.334C49.5058 37.8728 48.317 36.6841 46.8559 36.6841C45.3948 36.6841 44.206 37.8729 44.206 39.334C44.206 40.5 44.9631 41.4917 46.0113 41.8452V43.9346C45.4719 43.9706 44.9418 44.0405 44.4231 44.1426L44.1672 43.1876C44.0465 42.737 43.5831 42.4697 43.1328 42.5904C42.6822 42.7111 42.4149 43.1743 42.5355 43.6249L42.7914 44.5798C42.283 44.7538 41.7895 44.9598 41.3126 45.195L40.2669 43.3838C40.5344 43.0808 40.7323 42.7196 40.84 42.3178C41.0232 41.6341 40.9291 40.92 40.5752 40.3071C40.2213 39.694 39.6499 39.2555 38.9661 39.0723C38.2824 38.8891 37.5682 38.9831 36.9554 39.3372C35.69 40.0678 35.2549 41.6916 35.9855 42.9571C36.3394 43.57 36.9108 44.0085 37.5946 44.1917C37.8228 44.2529 38.0545 44.2832 38.2846 44.2832C38.4598 44.2832 38.6341 44.2654 38.8053 44.2306L39.8509 46.0417C39.4072 46.3402 38.9837 46.6665 38.5824 47.0177L37.8786 46.3138C37.5487 45.984 37.0139 45.984 36.6842 46.3138C36.3544 46.6437 36.3544 47.1785 36.6842 47.5082L37.388 48.212C37.0369 48.6133 36.7107 49.0368 36.4121 49.4805L34.5995 48.434C34.8174 47.3496 34.3372 46.198 33.3275 45.615C32.7146 45.2611 32.0005 45.1669 31.3167 45.3501C30.633 45.5333 30.0616 45.9719 29.7076 46.5849C29.3537 47.1978 29.2597 47.912 29.4429 48.5956C29.6261 49.2793 30.0646 49.8508 30.6775 50.2047C31.0859 50.4405 31.539 50.5609 31.9982 50.5609C32.2283 50.5609 32.4601 50.5306 32.6883 50.4695C33.0901 50.3618 33.4513 50.1639 33.7543 49.8964L35.5656 50.9422C35.3304 51.4191 35.1244 51.9127 34.9504 52.421L33.9955 52.1651C33.5454 52.0445 33.0817 52.3117 32.961 52.7623C32.8403 53.2128 33.1077 53.676 33.5582 53.7967L34.5132 54.0527C34.4112 54.5715 34.3412 55.1015 34.3052 55.6409H32.2158C31.8623 54.5927 30.8706 53.8356 29.7046 53.8356C28.2434 53.8356 27.0547 55.0244 27.0547 56.4855C27.0547 57.9466 28.2435 59.1354 29.7046 59.1354C30.8706 59.1354 31.8622 58.3782 32.2158 57.33H34.3052C34.3412 57.8694 34.4111 58.3996 34.5132 58.9183L33.5583 59.1741C33.1078 59.2949 32.8404 59.758 32.961 60.2086C33.0622 60.5859 33.4034 60.8348 33.7763 60.8348C33.8487 60.8348 33.9223 60.8254 33.9955 60.8057L34.9504 60.5499C35.1245 61.0583 35.3306 61.5519 35.5656 62.0287L33.7549 63.074C32.9247 62.343 31.6872 62.1831 30.6775 62.7661C29.4122 63.4967 28.977 65.1207 29.7076 66.3861C30.1979 67.2353 31.0905 67.7106 32.007 67.7106C32.4563 67.7106 32.9113 67.5964 33.3276 67.3561C34.3372 66.7731 34.8175 65.6215 34.5996 64.5369L36.4122 63.4904C36.7107 63.9341 37.037 64.3576 37.3881 64.759L36.6843 65.4628C36.3545 65.7926 36.3545 66.3274 36.6843 66.6571C36.8492 66.8221 37.0654 66.9045 37.2815 66.9045C37.4976 66.9045 37.7138 66.8221 37.8787 66.6571L38.5825 65.9533C38.9838 66.3044 39.4073 66.6307 39.851 66.9293L38.8043 68.7416C37.7199 68.5236 36.5682 69.0039 35.9853 70.0137C35.6313 70.6267 35.5373 71.3408 35.7205 72.0245C35.9037 72.7082 36.3422 73.2797 36.9552 73.6336C37.3635 73.8694 37.8166 73.9898 38.2758 73.9898C38.5059 73.9898 38.7378 73.9595 38.9659 73.8983C39.6497 73.7151 40.2211 73.2766 40.575 72.6637C41.158 71.654 40.9981 70.4166 40.2671 69.5863L41.3125 67.7757C41.7894 68.0108 42.2828 68.2169 42.7912 68.3909L42.5354 69.3458C42.4147 69.7963 42.6821 70.2594 43.1327 70.3802C43.2059 70.3998 43.2794 70.4091 43.3518 70.4091C43.7247 70.4091 44.066 70.1603 44.1671 69.7829L44.4229 68.828C44.9417 68.93 45.4719 69.0001 46.0112 69.036V71.1254C44.963 71.479 44.2058 72.4707 44.2058 73.6366C44.2058 75.0978 45.3946 76.2865 46.8558 76.2865C48.3169 76.2865 49.5057 75.0977 49.5057 73.6366C49.5057 72.4707 48.7485 71.479 47.7003 71.1254V69.036C48.2396 69.0001 48.7698 68.9301 49.2886 68.828L49.5444 69.7829C49.6455 70.1603 49.9867 70.4091 50.3597 70.4091C50.4321 70.4091 50.5056 70.3998 50.5788 70.3802C51.0294 70.2595 51.2967 69.7963 51.1761 69.3458L50.9203 68.3909C51.4287 68.2169 51.9221 68.0108 52.399 67.7757L53.4444 69.5863C52.7133 70.4166 52.5536 71.654 53.1365 72.6637C53.6268 73.5129 54.5194 73.9881 55.4359 73.9881C55.8852 73.9881 56.3403 73.8739 56.7565 73.6336C58.0218 72.9031 58.457 71.2792 57.7265 70.0138C57.1435 69.0041 55.992 68.5238 54.9074 68.7417L53.8609 66.9292C54.3046 66.6307 54.7281 66.3044 55.1295 65.9532L55.8334 66.657C55.9983 66.822 56.2145 66.9044 56.4306 66.9044C56.6467 66.9044 56.8629 66.822 57.0277 66.657C57.3576 66.3272 57.3576 65.7924 57.0277 65.4627L56.3238 64.7589C56.6749 64.3576 57.0012 63.934 57.2997 63.4903L59.1122 64.5368C58.8943 65.6213 59.3745 66.7729 60.3843 67.356C60.8006 67.5963 61.2554 67.7104 61.7047 67.7104C62.6213 67.7104 63.5139 67.235 64.0041 66.3858C64.7347 65.1205 64.2996 63.4966 63.0341 62.766C62.0243 62.1831 60.787 62.343 59.9567 63.0739L58.1461 62.0285C58.3812 61.5518 58.5873 61.0581 58.7612 60.5498L59.7162 60.8056C59.7894 60.8253 59.8629 60.8347 59.9353 60.8347C60.3081 60.8347 60.6495 60.5858 60.7506 60.2084C60.8713 59.7579 60.6039 59.2947 60.1533 59.174L59.1984 58.9182C59.3004 58.3994 59.3704 57.8693 59.4064 57.3299H61.4958C61.8493 58.3782 62.8411 59.1353 64.007 59.1353C65.4682 59.1353 66.6569 57.9465 66.6569 56.4854C66.6569 55.0243 65.468 53.8355 64.0068 53.8355ZM60.781 47.6612C60.8474 47.4134 61.0063 47.2062 61.2286 47.0778C61.6875 46.8129 62.2763 46.9707 62.5411 47.4295C62.806 47.8883 62.6483 48.4771 62.1894 48.742C61.9671 48.8703 61.7083 48.9044 61.4604 48.838C61.2124 48.7715 61.0052 48.6126 60.8769 48.3904C60.7487 48.1681 60.7144 47.9091 60.781 47.6612ZM38.0316 42.5601C37.7836 42.4937 37.5764 42.3348 37.4482 42.1125C37.3199 41.8902 37.2858 41.6313 37.3522 41.3834C37.4187 41.1355 37.5776 40.9283 37.7998 40.7999C37.9479 40.7145 38.1122 40.6708 38.2787 40.6708C38.3621 40.6708 38.4461 40.6817 38.5289 40.7039C38.7768 40.7703 38.984 40.9293 39.1123 41.1516C39.2406 41.3739 39.2747 41.6328 39.2082 41.8807C39.1419 42.1286 38.9829 42.3358 38.7606 42.4641C38.5383 42.5925 38.2794 42.6267 38.0316 42.5601ZM32.2511 48.838C32.0034 48.9044 31.7444 48.8704 31.5221 48.742C31.2998 48.6137 31.1408 48.4066 31.0745 48.1586C31.0081 47.9108 31.0421 47.6519 31.1704 47.4296C31.2988 47.2073 31.5059 47.0483 31.7539 46.9818C31.8366 46.9597 31.9205 46.9487 32.0041 46.9487C32.1706 46.9487 32.3349 46.9924 32.4829 47.0779C32.7052 47.2063 32.8641 47.4134 32.9305 47.6613C32.997 47.9092 32.9629 48.1682 32.8346 48.3905C32.7062 48.6128 32.499 48.7715 32.2511 48.838ZM32.4829 65.8931C32.0241 66.1579 31.4354 66.0002 31.1704 65.5413C31.0421 65.319 31.0081 65.0601 31.0745 64.8122C31.1409 64.5643 31.2998 64.3571 31.5221 64.2288C31.6702 64.1433 31.8344 64.0997 32.0009 64.0997C32.0844 64.0997 32.1684 64.1107 32.2511 64.1329C32.4991 64.1993 32.7063 64.3582 32.8346 64.5805C33.0994 65.0394 32.9417 65.6282 32.4829 65.8931ZM39.1123 71.8191C38.9839 72.0414 38.7768 72.2003 38.5289 72.2667C38.2811 72.3332 38.0221 72.2992 37.7998 72.1708C37.5776 72.0424 37.4186 71.8353 37.3522 71.5874C37.2858 71.3395 37.3198 71.0806 37.4482 70.8583C37.5765 70.636 37.7836 70.4772 38.0316 70.4107C38.2793 70.3443 38.5383 70.3783 38.7606 70.5067C38.9829 70.635 39.1418 70.8421 39.2082 71.0901C39.2747 71.3379 39.2406 71.5968 39.1123 71.8191ZM56.2633 70.8582C56.5283 71.3171 56.3705 71.9059 55.9117 72.1708C55.4529 72.4357 54.8641 72.2779 54.5991 71.8191C54.4707 71.5968 54.4367 71.3379 54.5031 71.0901C54.5696 70.8421 54.7285 70.6349 54.9508 70.5067C55.1017 70.4195 55.2666 70.3782 55.4296 70.3782C55.7619 70.3781 56.0855 70.5504 56.2633 70.8582ZM61.4604 64.1329C61.7081 64.0664 61.9671 64.1004 62.1894 64.2288C62.6483 64.4937 62.806 65.0825 62.5412 65.5413C62.2763 66.0002 61.6875 66.1578 61.2286 65.893C60.7698 65.628 60.6121 65.0393 60.8769 64.5804C61.0052 64.3583 61.2124 64.1993 61.4604 64.1329ZM54.5992 41.1517C54.777 40.8439 55.1007 40.6715 55.433 40.6715C55.5958 40.6715 55.7609 40.7129 55.9118 40.8001C56.3705 41.0649 56.5283 41.6537 56.2635 42.1125C55.9986 42.5713 55.4099 42.7292 54.9509 42.4642C54.7286 42.3358 54.5696 42.1287 54.5033 41.8808C54.4367 41.6329 54.4708 41.374 54.5992 41.1517ZM46.8558 38.3734C47.3856 38.3734 47.8165 38.8045 47.8165 39.3342C47.8165 39.864 47.3855 40.2951 46.8558 40.2951C46.326 40.2951 45.895 39.864 45.895 39.3342C45.895 38.8045 46.3259 38.3734 46.8558 38.3734ZM29.7046 57.4461C29.1748 57.4461 28.7438 57.0152 28.7438 56.4854C28.7438 55.9557 29.1749 55.5246 29.7046 55.5246C30.2343 55.5246 30.6654 55.9557 30.6654 56.4854C30.6654 57.0152 30.2344 57.4461 29.7046 57.4461ZM46.8558 74.5973C46.3259 74.5973 45.895 74.1662 45.895 73.6365C45.895 73.1068 46.326 72.6757 46.8558 72.6757C47.3855 72.6757 47.8165 73.1068 47.8165 73.6365C47.8165 74.1662 47.3855 74.5973 46.8558 74.5973ZM64.0068 57.4461C63.477 57.4461 63.046 57.0152 63.046 56.4854C63.046 55.9557 63.4771 55.5246 64.0068 55.5246C64.5365 55.5246 64.9676 55.9557 64.9676 56.4854C64.9676 57.0152 64.5366 57.4461 64.0068 57.4461Z" fill="white"/>
<path d="M47.701 48.3617C47.701 47.8952 47.3228 47.5171 46.8564 47.5171H46.8474C46.381 47.5171 46.0073 47.8952 46.0073 48.3617C46.0073 48.8281 46.39 49.2062 46.8564 49.2062C47.3228 49.2062 47.701 48.8281 47.701 48.3617Z" fill="white"/>
<path d="M38.7322 55.6411C38.2657 55.6411 37.8921 56.0193 37.8921 56.4857C37.8921 56.9522 38.2747 57.3302 38.7413 57.3302C39.2078 57.3302 39.5858 56.9522 39.5858 56.4857C39.5858 56.0193 39.2077 55.6411 38.7413 55.6411H38.7322Z" fill="white"/>
<path d="M55.825 56.4857C55.825 56.0193 55.4468 55.6411 54.9804 55.6411H54.9714C54.505 55.6411 54.1313 56.0193 54.1313 56.4857C54.1313 56.9522 54.514 57.3302 54.9804 57.3302C55.4468 57.3302 55.825 56.9522 55.825 56.4857Z" fill="white"/>
<path d="M46.8562 63.7654C46.3898 63.7654 46.0161 64.1434 46.0161 64.6099C46.0161 65.0764 46.3988 65.4545 46.8652 65.4545C47.3316 65.4545 47.7098 65.0764 47.7098 64.6099C47.7098 64.1434 47.3316 63.7654 46.8652 63.7654H46.8562Z" fill="white"/>
<path d="M29.3725 37.6748L30.779 40.111C30.9354 40.382 31.2193 40.5334 31.5112 40.5334C31.6544 40.5334 31.7997 40.4969 31.9327 40.4201C32.3366 40.1869 32.475 39.6704 32.2418 39.2665L30.8342 36.8284C31.5164 36.3311 32.1176 35.7299 32.6149 35.0477L35.053 36.4553C35.186 36.5322 35.3312 36.5686 35.4745 36.5686C35.7664 36.5686 36.0502 36.4171 36.2067 36.1462C36.4399 35.7423 36.3015 35.2257 35.8975 34.9925L33.4614 33.586C33.7998 32.8286 34.0262 32.0108 34.1158 31.1524H36.9265C37.3929 31.1524 37.771 30.7744 37.771 30.3079C37.771 29.8414 37.3929 29.4633 36.9265 29.4633H34.1158C34.0261 28.6049 33.7996 27.7871 33.4612 27.0297L35.8974 25.6232C36.3014 25.39 36.4398 24.8735 36.2065 24.4695C35.9733 24.0656 35.4568 23.9273 35.0529 24.1604L32.6148 25.568C32.1175 24.8858 31.5163 24.2846 30.8341 23.7873L32.2417 21.3494C32.4749 20.9454 32.3365 20.4289 31.9326 20.1957C31.5287 19.9623 31.0121 20.1007 30.7789 20.5048L29.3724 22.941C28.615 22.6026 27.7971 22.3761 26.9388 22.2865V19.4754C26.9388 19.009 26.5607 18.6309 26.0943 18.6309C25.6278 18.6309 25.2497 19.009 25.2497 19.4754V22.286C24.3913 22.3758 23.5735 22.6022 22.8161 22.9405L21.4096 20.5043C21.1764 20.1003 20.6599 19.962 20.2559 20.1952C19.852 20.4284 19.7136 20.945 19.9468 21.3489L21.3544 23.7869C20.6722 24.2842 20.071 24.8854 19.5737 25.5676L17.1356 24.16C16.7317 23.9267 16.2152 24.0651 15.982 24.4691C15.7487 24.873 15.8871 25.3895 16.2911 25.6228L18.7273 27.0294C18.3889 27.7868 18.1624 28.6045 18.0727 29.4629H15.262C14.7956 29.4629 14.4175 29.8411 14.4175 30.3075C14.4175 30.7741 14.7956 31.1521 15.262 31.1521H18.0731C18.1615 31.9939 18.3815 32.8164 18.7243 33.5873L16.291 34.9922C15.887 35.2254 15.7486 35.7419 15.9818 36.1458C16.1383 36.4168 16.4221 36.5682 16.714 36.5682C16.8573 36.5682 17.0025 36.5318 17.1355 36.455L20.2626 34.6496L20.2625 34.6495C20.6659 34.4158 20.8037 33.8993 20.5702 33.4957C20.0122 32.5314 19.7174 31.4289 19.7174 30.3074C19.7174 26.7912 22.5781 23.9305 26.0944 23.9305C29.6106 23.9305 32.4713 26.7912 32.4713 30.3074C32.4713 33.8237 29.6106 36.6843 26.0944 36.6843C24.973 36.6843 23.8704 36.3895 22.9062 35.8317C22.5027 35.5981 21.986 35.7358 21.7525 36.1393L21.7522 36.1392L19.9468 39.2665C19.7136 39.6704 19.852 40.1869 20.2559 40.4201C20.3889 40.4969 20.5342 40.5334 20.6774 40.5334C20.9693 40.5334 21.2532 40.3819 21.4096 40.111L22.8145 37.6777C23.5854 38.0204 24.4079 38.2405 25.2497 38.329V41.1401C25.2497 41.6065 25.6278 41.9846 26.0943 41.9846C26.5607 41.9846 26.9388 41.6065 26.9388 41.1401V38.3294C27.7972 38.2396 28.6151 38.0132 29.3725 37.6748Z" fill="white"/>
<path d="M26.0941 28.4442C26.5605 28.4442 26.9386 28.0661 26.9386 27.5996V26.6969C26.9386 26.2304 26.5605 25.8523 26.0941 25.8523C25.6277 25.8523 25.2495 26.2304 25.2495 26.6969V27.5996C25.2495 28.066 25.6277 28.4442 26.0941 28.4442Z" fill="white"/>
<path d="M25.2495 33.9186C25.2495 34.3852 25.6277 34.7632 26.0941 34.7632C26.5605 34.7632 26.9386 34.3852 26.9386 33.9186V33.016C26.9386 32.5494 26.5605 32.1714 26.0941 32.1714C25.6277 32.1714 25.2495 32.5494 25.2495 33.016V33.9186Z" fill="white"/>
<path d="M29.7052 31.1523C30.1717 31.1523 30.5498 30.7742 30.5498 30.3077C30.5498 29.8413 30.1717 29.4631 29.7052 29.4631H28.8026C28.3361 29.4631 27.958 29.8413 27.958 30.3077C27.958 30.7742 28.3361 31.1523 28.8026 31.1523H29.7052Z" fill="white"/>
<path d="M22.4837 31.1523H23.3864C23.8528 31.1523 24.231 30.7742 24.231 30.3077C24.231 29.8413 23.8528 29.4631 23.3864 29.4631H22.4837C22.0173 29.4631 21.6392 29.8413 21.6392 30.3077C21.6392 30.7742 22.0173 31.1523 22.4837 31.1523Z" fill="white"/>
<path d="M68.5205 26.7552H66.5994C66.4554 25.681 66.0375 24.6721 65.3798 23.8108L66.7383 22.4522C67.0681 22.1224 67.0681 21.5877 66.7383 21.2579C66.4084 20.9281 65.8737 20.9281 65.544 21.2579L63.629 23.1727L63.6309 23.1775C63.3027 23.5072 63.3028 24.0405 63.6317 24.3699C64.4934 25.233 64.968 26.3802 64.968 27.5998C64.968 30.1206 62.9172 32.1714 60.3964 32.1714C57.8755 32.1714 55.8248 30.1206 55.8248 27.5998C55.8248 25.079 57.8755 23.0282 60.3964 23.0282C60.6743 23.0282 60.9524 23.0532 61.2233 23.1027C61.6824 23.1863 62.122 22.8823 62.2058 22.4234C62.2894 21.9645 61.9853 21.5247 61.5265 21.441C61.4319 21.4238 61.3367 21.4088 61.2409 21.396V19.4754C61.2409 19.009 60.8628 18.6309 60.3964 18.6309C59.9299 18.6309 59.5518 19.009 59.5518 19.4754V21.3974C58.4562 21.5459 57.4498 21.9779 56.6096 22.6183L55.2489 21.2578C54.9191 20.928 54.3843 20.928 54.0546 21.2578C53.7247 21.5876 53.7247 22.1224 54.0546 22.4521L55.4152 23.8128C54.7748 24.6531 54.3427 25.6595 54.1943 26.7552H52.2723C51.8059 26.7552 51.4277 27.1332 51.4277 27.5997C51.4277 28.0661 51.8059 28.4443 52.2723 28.4443H54.1943C54.3427 29.5399 54.7748 30.5462 55.4152 31.3865L54.0546 32.7472C53.7247 33.077 53.7247 33.6117 54.0546 33.9415C54.2194 34.1064 54.4356 34.1888 54.6517 34.1888C54.8678 34.1888 55.084 34.1064 55.2489 33.9415L56.6096 32.5809C57.4498 33.2213 58.4562 33.6532 59.5518 33.8018V35.7238C59.5518 36.1903 59.9299 36.5684 60.3964 36.5684C60.8628 36.5684 61.2409 36.1903 61.2409 35.7238V33.8018C62.3365 33.6534 63.3429 33.2213 64.1832 32.5809L65.5438 33.9415C65.7087 34.1064 65.9249 34.1888 66.141 34.1888C66.3571 34.1888 66.5733 34.1064 66.7382 33.9415C67.068 33.6117 67.068 33.0769 66.7382 32.7472L65.3775 31.3865C66.0179 30.5462 66.45 29.5399 66.5984 28.4443H68.5204C68.9869 28.4443 69.365 28.0661 69.365 27.5997C69.3651 27.1332 68.987 26.7552 68.5205 26.7552Z" fill="white"/>
<path d="M62.1926 25.8523C61.7262 25.8523 61.3525 26.2304 61.3525 26.6969C61.3525 27.1634 61.7352 27.5414 62.2016 27.5414C62.668 27.5414 63.0462 27.1634 63.0462 26.6969C63.0462 26.2304 62.668 25.8523 62.2016 25.8523H62.1926Z" fill="white"/>
<path d="M60.3964 28.5605H60.3874C59.921 28.5605 59.5474 28.9386 59.5474 29.4051C59.5474 29.8715 59.93 30.2497 60.3964 30.2497C60.8629 30.2497 61.241 29.8715 61.241 29.4051C61.241 28.9386 60.8629 28.5605 60.3964 28.5605Z" fill="white"/>
<path d="M58.5827 25.8523C58.1163 25.8523 57.7427 26.2304 57.7427 26.6969C57.7427 27.1634 58.1253 27.5414 58.5917 27.5414C59.0582 27.5414 59.4363 27.1634 59.4363 26.6969C59.4363 26.2304 59.0582 25.8523 58.5917 25.8523H58.5827Z" fill="white"/>
</g>
<defs>
<clipPath id="clip0">
<rect width="57.6558" height="57.6558" fill="white" transform="translate(13.063 18.6309)"/>
</clipPath>
</defs>
</svg>
