<svg width="89" height="89" viewBox="0 0 89 89" fill="none" xmlns="http://www.w3.org/2000/svg">
<circle cx="44.6294" cy="44.2864" r="42.9985" stroke="white" stroke-width="2"/>
<g clip-path="url(#clip0)">
<path d="M70.5282 67.7456C70.5421 67.7156 70.5543 67.6849 70.5646 67.6532C70.5656 67.6501 70.5672 67.6471 70.5682 67.644C70.5688 67.6417 70.5702 67.6369 70.5712 67.6338C70.5722 67.6304 70.5732 67.6269 70.5742 67.6235C70.6244 67.4516 70.8629 66.5122 70.4766 65.2949C69.8291 63.2538 67.9266 62.014 66.4449 61.3332C63.4007 59.9349 60.0624 56.9608 57.0762 53.5645L57.5217 53.2896C57.9051 53.053 58.0251 52.5488 57.7897 52.1636C57.5542 51.7781 57.0526 51.6579 56.669 51.8943L56.0014 52.3061C55.6112 51.8362 55.2291 51.3612 54.8562 50.8837L55.5191 50.4508C55.8964 50.2044 56.0034 49.6973 55.7581 49.3182C55.5129 48.9389 55.008 48.8314 54.6309 49.0779L53.8641 49.5787C53.4347 48.9979 53.0214 48.4176 52.6268 47.8426L53.196 47.4874C53.5783 47.2488 53.6956 46.744 53.4581 46.3599C53.2204 45.9756 52.7182 45.8578 52.336 46.0966L51.7207 46.4807C50.6467 44.8137 49.757 43.2295 49.1255 41.8587C49.0343 41.6128 48.2569 39.3575 49.8065 37.8006C50.1247 37.4808 50.1247 36.9624 49.8064 36.6427C49.4883 36.323 48.9724 36.323 48.6542 36.6427C46.9838 38.3213 47.1245 40.4603 47.3736 41.6291C46.3996 41.9069 44.5677 42.3678 42.5099 42.5747C37.6282 43.0659 35.2291 41.7885 34.0767 40.6304C29.8895 36.4231 29.6179 32.2303 29.6158 32.1913C29.5998 31.848 29.3721 31.5514 29.0458 31.4485C28.7194 31.3456 28.3641 31.4583 28.1557 31.731L15.9513 47.6962C15.8127 47.8777 15.7559 48.1089 15.7946 48.3343C15.8333 48.5596 15.964 48.7583 16.1552 48.8825C16.3832 49.0306 39.0357 63.7424 45.4194 67.6369C50.6148 70.8064 57.6759 72.3085 63.0822 72.3084C64.7148 72.3084 66.1971 72.1713 67.4307 71.9018C67.6334 71.8577 67.8115 71.7374 67.9292 71.5656L70.462 67.8635C70.4637 67.861 70.4649 67.858 70.4667 67.8554C70.4864 67.826 70.5042 67.7953 70.5199 67.7635C70.5231 67.7577 70.5254 67.7516 70.5282 67.7456ZM66.7725 70.366C64.234 70.8549 60.7434 70.7688 57.1243 70.1223C53.0293 69.3908 49.1728 68.011 46.2651 66.2372C40.557 62.7549 21.7612 50.571 17.7821 47.9893L19.5174 45.7194C25.326 49.4862 29.8144 52.3816 32.5846 54.1652C32.7207 54.2528 32.8727 54.2946 33.0233 54.2946C33.2918 54.2946 33.5545 54.1614 33.71 53.9174C33.9528 53.5367 33.8426 53.0304 33.4636 52.7864C32.2366 51.9964 30.6717 50.9878 28.805 49.7823C29.6578 48.2042 30.1058 46.4364 30.1058 44.622C30.1058 42.105 29.2271 39.6531 27.6318 37.7181C27.3446 37.3698 26.8309 37.3215 26.4845 37.6099C26.1381 37.8984 26.0898 38.4146 26.3769 38.7627C27.7307 40.4046 28.4763 42.4855 28.4763 44.6219C28.4763 46.1212 28.1154 47.5821 27.4292 48.8935C25.41 47.5886 23.0928 46.0891 20.5133 44.4164L28.3384 34.1798C28.8366 36.0022 30.0377 38.8874 32.9244 41.788C37.069 45.9526 45.4615 43.9005 47.9447 43.1708C48.5774 44.4543 49.397 45.8753 50.3421 47.3412L47.5739 49.0691C47.1915 49.3077 47.0742 49.8125 47.3118 50.1965C47.4661 50.4462 47.7323 50.5833 48.0047 50.5833C48.1516 50.5833 48.3 50.5434 48.4339 50.4599L51.2478 48.7035C51.6503 49.2913 52.0696 49.8817 52.5018 50.4689L50.3018 51.9057C49.9245 52.1521 49.8175 52.6593 50.0628 53.0384C50.2189 53.2798 50.4801 53.411 50.7467 53.411C50.8989 53.411 51.0529 53.3683 51.1899 53.2786L53.4896 51.7766C53.8545 52.2471 54.2261 52.7123 54.6021 53.1699L52.5564 54.4321C52.173 54.6686 52.0529 55.1729 52.2883 55.5581C52.4421 55.8099 52.7096 55.9486 52.9834 55.9486C53.1288 55.9486 53.276 55.9094 53.4091 55.8274L55.6699 54.4325C60.1268 59.5653 63.6028 61.8282 65.7677 62.8225C68.7186 64.1781 69.0781 65.9032 69.0662 66.7073C66.5498 67.1464 63.1643 67.0465 59.6575 66.4201C55.5625 65.6886 51.7059 64.3088 48.7986 62.5352C46.6287 61.2102 42.3725 58.511 36.1481 54.5126C35.7689 54.2691 35.2652 54.3804 35.0227 54.7614C34.7805 55.1424 34.8912 55.6485 35.2704 55.8921C41.5052 59.8971 45.772 62.6031 47.9526 63.9347C53.1479 67.1044 60.2091 68.6063 65.6153 68.6063C66.4755 68.6063 67.2924 68.5672 68.0549 68.4917L66.7725 70.366Z" fill="white"/>
<path d="M39.2278 31.3724C40.132 30.5809 40.6506 29.4366 40.6506 28.2321C40.6506 27.0276 40.1319 25.8833 39.2278 25.0923C38.8944 24.8003 38.3892 24.8353 38.0991 25.1703C37.8084 25.5053 37.8433 26.0137 38.1767 26.3052C38.7314 26.7907 39.0498 27.493 39.0498 28.2321C39.0498 28.9712 38.7314 29.6735 38.1767 30.159C37.2724 30.95 36.7544 32.0949 36.7544 33.2993C36.7544 34.5039 37.2724 35.6482 38.1767 36.4391C38.3287 36.5718 38.5155 36.6371 38.702 36.6371C38.9255 36.6371 39.1475 36.5439 39.3061 36.3611C39.5962 36.0262 39.5613 35.5184 39.2278 35.2263C38.6732 34.7408 38.3546 34.0385 38.3546 33.2993C38.3546 32.5603 38.6732 31.858 39.2278 31.3724Z" fill="white"/>
<path d="M34.4041 23.452C35.3083 22.661 35.8271 21.5167 35.8271 20.3123C35.8271 19.1077 35.3083 17.9634 34.4041 17.1719C34.0712 16.8804 33.5654 16.9155 33.2753 17.2506C32.9847 17.5855 33.0195 18.0933 33.353 18.3848C33.9077 18.8703 34.2261 19.5726 34.2261 20.3123C34.2261 21.0513 33.9077 21.7536 33.353 22.2391C32.4492 23.0301 31.9307 24.175 31.9307 25.3794C31.9307 26.584 32.4489 27.7283 33.353 28.5193C33.5049 28.6519 33.6918 28.7172 33.8783 28.7172C34.1018 28.7172 34.3243 28.6236 34.4824 28.4407C34.7725 28.1064 34.7375 27.598 34.4041 27.3065C33.8494 26.821 33.531 26.1187 33.531 25.3796C33.531 24.6405 33.8494 23.9376 34.4041 23.452Z" fill="white"/>
<path d="M47.2713 27.0423C48.1755 26.2513 48.6942 25.1071 48.6942 23.9026C48.6942 22.698 48.1755 21.5538 47.2713 20.7623C46.9384 20.4707 46.4326 20.5059 46.1425 20.8409C45.8519 21.1758 45.8867 21.6836 46.2202 21.9751C46.7748 22.4606 47.0933 23.1629 47.0933 23.9026C47.0933 24.6416 46.7748 25.3439 46.2202 25.8294C45.3164 26.6204 44.7979 27.7653 44.7979 28.9698C44.7979 30.1744 45.3161 31.3186 46.2202 32.1096C46.3721 32.2422 46.559 32.3075 46.7455 32.3075C46.969 32.3075 47.1915 32.2139 47.3496 32.031C47.6397 31.6967 47.6047 31.1883 47.2713 30.8968C46.7166 30.4113 46.3982 29.709 46.3982 28.9699C46.3982 28.2308 46.7166 27.5279 47.2713 27.0423Z" fill="white"/>
<path d="M43.4531 23.374C43.7432 23.0389 43.7082 22.5305 43.3748 22.239C42.8201 21.7535 42.5024 21.0512 42.5024 20.3122C42.5024 19.5725 42.8201 18.8701 43.3748 18.3847C44.279 17.5937 44.7978 16.4494 44.7978 15.2449C44.7978 14.0403 44.279 12.8961 43.3748 12.1045C43.0419 11.813 42.5361 11.8482 42.246 12.1832C41.9559 12.5181 41.9902 13.0259 42.3237 13.3174C42.8789 13.8029 43.1968 14.5052 43.1968 15.2449C43.1968 15.984 42.879 16.6862 42.3237 17.1718C41.4199 17.9628 40.9014 19.1076 40.9014 20.3122C40.9014 21.5161 41.42 22.6609 42.3237 23.4519C42.4756 23.5845 42.6625 23.6498 42.849 23.6498C43.0726 23.6498 43.2951 23.5562 43.4531 23.374Z" fill="white"/>
</g>
<defs>
<clipPath id="clip0">
<rect width="54.9105" height="60.4015" fill="white" transform="translate(15.7827 11.907)"/>
</clipPath>
</defs>
</svg>
