<svg width="89" height="89" viewBox="0 0 89 89" fill="none" xmlns="http://www.w3.org/2000/svg">
<circle cx="44.6265" cy="44.2864" r="42.9985" stroke="white" stroke-width="2"/>
<g clip-path="url(#clip0)">
<path d="M46.3199 17.7253C45.9188 17.7253 45.5437 17.9228 45.3168 18.2534C44.6533 19.2196 29.0688 42.0494 29.0688 53.5961C29.0688 63.1083 36.8076 70.847 46.3197 70.847C55.8319 70.847 63.5705 63.1083 63.5705 53.5961C63.5705 42.0494 47.9862 19.2196 47.3227 18.2534C47.0961 17.923 46.7208 17.7253 46.3199 17.7253ZM46.3199 68.4134C38.1496 68.4134 31.5027 61.7664 31.5027 53.5961C31.5027 44.4122 42.839 26.4377 46.3199 21.1355C49.8008 26.4377 61.137 44.412 61.137 53.5961C61.137 61.7664 54.49 68.4134 46.3199 68.4134Z" fill="white"/>
<path d="M45.103 63.9514C45.103 64.6234 45.6477 65.1682 46.3199 65.1682C52.7009 65.1682 57.8924 59.977 57.8924 53.5965C57.8924 52.9245 57.3477 52.3796 56.6756 52.3796C56.0034 52.3796 55.4587 52.9245 55.4587 53.5965C55.4587 58.6353 51.359 62.7345 46.3199 62.7345C45.6477 62.7345 45.103 63.2793 45.103 63.9514Z" fill="white"/>
<path d="M70.179 22.6536H67.8145V20.2889C67.8145 19.6168 67.2699 19.072 66.5977 19.072C65.9255 19.072 65.3808 19.6168 65.3808 20.2889V22.6536H63.0161C62.344 22.6536 61.7993 23.1984 61.7993 23.8704C61.7993 24.5424 62.344 25.0872 63.0161 25.0872H65.3808V27.4519C65.3808 28.1239 65.9255 28.6687 66.5977 28.6687C67.2699 28.6687 67.8145 28.1239 67.8145 27.4519V25.0872H70.179C70.8512 25.0872 71.3959 24.5424 71.3959 23.8704C71.3959 23.1984 70.8512 22.6536 70.179 22.6536Z" fill="white"/>
<path d="M26.2378 59.2939H23.8731V56.9292C23.8731 56.2572 23.3284 55.7124 22.6563 55.7124C21.9841 55.7124 21.4394 56.2572 21.4394 56.9292V59.2939H19.0747C18.4026 59.2939 17.8579 59.8387 17.8579 60.5108C17.8579 61.1828 18.4026 61.7276 19.0747 61.7276H21.4394V64.0923C21.4394 64.7643 21.9841 65.3091 22.6563 65.3091C23.3284 65.3091 23.8731 64.7643 23.8731 64.0923V61.7276H26.2378C26.91 61.7276 27.4546 61.1828 27.4546 60.5108C27.4546 59.8387 26.91 59.2939 26.2378 59.2939Z" fill="white"/>
</g>
<defs>
<clipPath id="clip0">
<rect width="53.5377" height="53.5377" fill="white" transform="translate(17.8579 17.5173)"/>
</clipPath>
</defs>
</svg>
