<svg width="89" height="89" viewBox="0 0 89 89" fill="none" xmlns="http://www.w3.org/2000/svg">
<circle cx="44.3315" cy="44.9296" r="42.9985" stroke="white" stroke-width="2"/>
<g clip-path="url(#clip0)">
<path d="M70.2743 67.1357C70.2882 67.1058 70.3004 67.0751 70.3106 67.0434C70.3117 67.0402 70.3133 67.0372 70.3143 67.0341C70.3149 67.0318 70.3163 67.027 70.3173 67.024C70.3183 67.0205 70.3193 67.0171 70.3203 67.0136C70.3705 66.8417 70.609 65.9024 70.2227 64.6851C69.5751 62.6439 67.6727 61.4041 66.191 60.7233C63.1468 59.325 59.8085 56.3509 56.8223 52.9546L57.2678 52.6797C57.6512 52.4432 57.7712 51.939 57.5358 51.5537C57.3003 51.1682 56.7987 51.0481 56.4151 51.2844L55.7474 51.6963C55.3573 51.2263 54.9752 50.7513 54.6023 50.2738L55.2652 49.8409C55.6425 49.5946 55.7495 49.0874 55.5042 48.7083C55.259 48.3291 54.7541 48.2215 54.377 48.468L53.6102 48.9689C53.1808 48.388 52.7675 47.8077 52.3729 47.2327L52.9421 46.8775C53.3244 46.6389 53.4417 46.1341 53.2042 45.7501C52.9665 45.3658 52.4643 45.2479 52.0821 45.4867L51.4668 45.8709C50.3928 44.2039 49.5031 42.6196 48.8716 41.2489C48.7803 41.003 48.003 38.7477 49.5526 37.1907C49.8708 36.871 49.8708 36.3525 49.5525 36.0329C49.2344 35.7131 48.7185 35.7131 48.4003 36.0329C46.7299 37.7114 46.8706 39.8504 47.1197 41.0192C46.1457 41.297 44.3138 41.758 42.256 41.9649C37.3743 42.456 34.9752 41.1786 33.8228 40.0206C29.6355 35.8133 29.364 31.6205 29.3619 31.5815C29.3459 31.2381 29.1182 30.9416 28.7919 30.8387C28.4655 30.7357 28.1102 30.8485 27.9018 31.1211L15.6974 47.0863C15.5588 47.2678 15.502 47.4991 15.5407 47.7244C15.5794 47.9497 15.7101 48.1485 15.9013 48.2726C16.1293 48.4208 38.7818 63.1325 45.1655 67.027C50.3608 70.1966 57.422 71.6987 62.8283 71.6986C64.4608 71.6986 65.9432 71.5615 67.1768 71.292C67.3795 71.2478 67.5576 71.1275 67.6753 70.9557L70.2081 67.2536C70.2098 67.2511 70.211 67.2481 70.2128 67.2455C70.2325 67.2161 70.2503 67.1854 70.266 67.1536C70.2691 67.1478 70.2715 67.1418 70.2743 67.1357ZM66.5186 69.7561C63.9801 70.245 60.4895 70.1589 56.8704 69.5125C52.7754 68.781 48.9189 67.4012 46.0112 65.6274C40.3031 62.1451 21.5073 49.9612 17.5282 47.3795L19.2635 45.1095C25.0721 48.8763 29.5605 51.7717 32.3307 53.5553C32.4668 53.6429 32.6188 53.6847 32.7694 53.6847C33.0379 53.6847 33.3006 53.5515 33.4561 53.3076C33.6989 52.9268 33.5887 52.4206 33.2097 52.1766C31.9827 51.3866 30.4178 50.3779 28.5511 49.1724C29.4039 47.5943 29.8519 45.8266 29.8519 44.0122C29.8519 41.4951 28.9732 39.0433 27.3779 37.1083C27.0907 36.76 26.577 36.7117 26.2306 37.0001C25.8841 37.2885 25.8359 37.8047 26.123 38.1528C27.4768 39.7947 28.2223 41.8756 28.2223 44.0121C28.2223 45.5114 27.8615 46.9722 27.1753 48.2836C25.156 46.9787 22.8389 45.4793 20.2594 43.8065L28.0845 33.5699C28.5827 35.3923 29.7838 38.2775 32.6705 41.1782C36.8151 45.3427 45.2076 43.2907 47.6908 42.5609C48.3235 43.8445 49.1431 45.2655 50.0882 46.7314L47.32 48.4593C46.9376 48.6978 46.8203 49.2026 47.0579 49.5867C47.2122 49.8364 47.4784 49.9735 47.7508 49.9735C47.8977 49.9735 48.0461 49.9336 48.18 49.8501L50.9939 48.0936C51.3964 48.6815 51.8157 49.2718 52.2479 49.859L50.0479 51.2958C49.6706 51.5423 49.5636 52.0494 49.8088 52.4285C49.965 52.6699 50.2261 52.8012 50.4928 52.8012C50.6449 52.8012 50.799 52.7584 50.936 52.6687L53.2357 51.1667C53.6006 51.6372 53.9722 52.1024 54.3482 52.56L52.3025 53.8222C51.919 54.0588 51.799 54.563 52.0344 54.9483C52.1882 55.2 52.4557 55.3387 52.7295 55.3387C52.8749 55.3387 53.0221 55.2996 53.1552 55.2176L55.4159 53.8227C59.8729 58.9555 63.3489 61.2183 65.5138 62.2126C68.4647 63.5682 68.8242 65.2933 68.8123 66.0974C66.2959 66.5366 62.9104 66.4367 59.4036 65.8102C55.3086 65.0787 51.452 63.6989 48.5447 61.9253C46.3748 60.6004 42.1186 57.9011 35.8942 53.9027C35.5149 53.6592 35.0113 53.7705 34.7688 54.1516C34.5266 54.5325 34.6373 55.0387 35.0165 55.2822C41.2513 59.2873 45.5181 61.9932 47.6987 63.3249C52.894 66.4945 59.9552 67.9964 65.3614 67.9964C66.2216 67.9964 67.0385 67.9573 67.801 67.8819L66.5186 69.7561Z" fill="white"/>
<path d="M38.9739 30.7625C39.8781 29.971 40.3967 28.8268 40.3967 27.6222C40.3967 26.4177 39.878 25.2735 38.9739 24.4825C38.6405 24.1904 38.1353 24.2255 37.8452 24.5604C37.5545 24.8954 37.5894 25.4039 37.9228 25.6954C38.4775 26.1808 38.7959 26.8831 38.7959 27.6222C38.7959 28.3613 38.4775 29.0636 37.9228 29.5491C37.0185 30.3401 36.5005 31.485 36.5005 32.6895C36.5005 33.8941 37.0185 35.0383 37.9228 35.8293C38.0748 35.9619 38.2616 36.0272 38.4481 36.0272C38.6716 36.0272 38.8936 35.934 39.0522 35.7513C39.3423 35.4163 39.3074 34.9085 38.9739 34.6164C38.4192 34.1309 38.1007 33.4286 38.1007 32.6895C38.1007 31.9504 38.4192 31.2481 38.9739 30.7625Z" fill="white"/>
<path d="M34.1502 22.8419C35.0544 22.0509 35.5732 20.9066 35.5732 19.7022C35.5732 18.4976 35.0544 17.3533 34.1502 16.5618C33.8173 16.2703 33.3115 16.3054 33.0214 16.6405C32.7308 16.9754 32.7656 17.4832 33.0991 17.7747C33.6538 18.2602 33.9722 18.9625 33.9722 19.7022C33.9722 20.4412 33.6538 21.1435 33.0991 21.629C32.1953 22.42 31.6768 23.5649 31.6768 24.7693C31.6768 25.9739 32.195 27.1182 33.0991 27.9091C33.251 28.0418 33.4379 28.1071 33.6244 28.1071C33.8479 28.1071 34.0704 28.0135 34.2285 27.8306C34.5186 27.4963 34.4836 26.9879 34.1502 26.6964C33.5955 26.2109 33.2771 25.5086 33.2771 24.7694C33.2771 24.0304 33.5955 23.3275 34.1502 22.8419Z" fill="white"/>
<path d="M47.0174 26.4323C47.9216 25.6413 48.4403 24.4971 48.4403 23.2926C48.4403 22.088 47.9216 20.9438 47.0174 20.1523C46.6845 19.8608 46.1787 19.8959 45.8886 20.2309C45.598 20.5659 45.6328 21.0736 45.9663 21.3651C46.5209 21.8506 46.8394 22.5529 46.8394 23.2926C46.8394 24.0317 46.5209 24.734 45.9663 25.2194C45.0625 26.0104 44.5439 27.1553 44.5439 28.3598C44.5439 29.5644 45.0622 30.7086 45.9663 31.4996C46.1182 31.6323 46.3051 31.6976 46.4916 31.6976C46.7151 31.6976 46.9376 31.6039 47.0957 31.421C47.3858 31.0868 47.3508 30.5783 47.0174 30.2868C46.4627 29.8013 46.1443 29.099 46.1443 28.3599C46.1443 27.6208 46.4627 26.9179 47.0174 26.4323Z" fill="white"/>
<path d="M43.1992 22.764C43.4893 22.4289 43.4543 21.9205 43.1209 21.629C42.5662 21.1435 42.2484 20.4412 42.2484 19.7022C42.2484 18.9625 42.5662 18.2601 43.1209 17.7747C44.0251 16.9837 44.5439 15.8394 44.5439 14.6349C44.5439 13.4303 44.0251 12.2861 43.1209 11.4946C42.788 11.203 42.2822 11.2382 41.9921 11.5732C41.702 11.9081 41.7363 12.4159 42.0698 12.7074C42.625 13.1929 42.9429 13.8952 42.9429 14.6349C42.9429 15.3741 42.6251 16.0762 42.0698 16.5618C41.166 17.3528 40.6475 18.4976 40.6475 19.7022C40.6475 20.9061 41.1661 22.0509 42.0698 22.8419C42.2217 22.9745 42.4086 23.0398 42.5951 23.0398C42.8187 23.0398 43.0412 22.9462 43.1992 22.764Z" fill="white"/>
</g>
<defs>
<clipPath id="clip0">
<rect width="54.9105" height="60.4015" fill="white" transform="translate(16.877 11.297)"/>
</clipPath>
</defs>
</svg>
