<svg width="89" height="89" viewBox="0 0 89 89" fill="none" xmlns="http://www.w3.org/2000/svg">
<circle cx="44.6323" cy="44.4055" r="42.9985" stroke="white" stroke-width="2"/>
<path d="M72.8614 27.7336C72.8128 26.4704 72.3235 25.3261 71.5175 24.5936C70.7789 23.922 69.8647 23.7044 69.0163 23.9314C68.9065 22.7903 68.4345 21.7712 67.6944 21.0997C66.7551 20.245 65.5351 20.1229 64.5267 20.7162C64.3009 20.0071 63.9199 19.3888 63.4165 18.9301C62.4647 18.0645 61.2243 17.9518 60.2065 18.5732C59.9792 17.8845 59.606 17.2818 59.1136 16.8341C57.972 15.7979 56.4164 15.8354 55.3297 16.9296C55.3265 16.9343 55.3218 16.939 55.3187 16.9421C55.0239 16.316 54.6287 15.765 54.1504 15.3298C52.6717 13.9868 50.7335 14.0353 49.3253 15.4519C48.1335 16.6494 47.6333 18.4073 47.9171 20.4C48.1194 22.017 48.7576 23.2239 49.871 24.0895C50.5233 24.5967 51.2651 24.8471 52.0005 24.8471C52.9053 24.8471 53.7976 24.4683 54.4986 23.7263C54.7416 23.4696 54.9549 23.1785 55.1399 22.8638C55.3155 23.0814 55.5163 23.2787 55.7421 23.454C56.2549 23.8531 56.8366 24.0488 57.4153 24.0488C57.8794 24.0488 58.3405 23.9205 58.756 23.67C59.0022 24.4448 59.4335 25.0757 60.045 25.5515C60.5578 25.9491 61.1396 26.1464 61.7182 26.1464C62.1667 26.1464 62.6136 26.0274 63.0198 25.7926C63.2628 26.5894 63.7003 27.2359 64.3245 27.7211C64.8372 28.1203 65.419 28.3159 65.9961 28.3159C66.2125 28.3159 66.4273 28.2878 66.6375 28.2346C66.6437 28.2987 66.6516 28.3629 66.6594 28.4271C66.81 29.6293 67.3086 30.5685 68.1444 31.2181C68.6572 31.6157 69.239 31.8129 69.8176 31.8129C70.528 31.8129 71.229 31.5155 71.7778 30.9332C72.5148 30.1474 72.9084 28.9828 72.8614 27.7336ZM53.2142 22.5148C52.5619 23.2051 51.6963 23.2755 50.953 22.6964C50.216 22.1234 49.8067 21.322 49.664 20.173C49.664 20.1668 49.6624 20.1621 49.6609 20.1558C49.4554 18.7188 49.78 17.4884 50.5751 16.6885C50.9499 16.3113 51.3686 16.1219 51.7904 16.1219C52.1887 16.1219 52.5901 16.2909 52.9602 16.6275C53.6643 17.2677 54.1112 18.3619 54.1567 19.5563C54.2037 20.735 53.8509 21.8401 53.2142 22.5148ZM58.0927 21.9575C57.7164 22.3567 57.2553 22.3942 56.8272 22.0608C56.3599 21.6977 56.0996 21.1811 56.0071 20.4344C56.0071 20.4297 56.0055 20.4235 56.0055 20.4188C55.8707 19.4764 56.0761 18.6781 56.5842 18.1678C56.8021 17.9487 57.0326 17.8391 57.2679 17.8391C57.489 17.8391 57.7132 17.9361 57.9281 18.1334C58.3781 18.5435 58.6666 19.2557 58.6964 20.0384C58.7247 20.8101 58.4988 21.527 58.0927 21.9575ZM62.3957 24.0551C62.0193 24.4542 61.5583 24.4918 61.1302 24.1584C60.6629 23.7952 60.4026 23.2787 60.31 22.5336C60.3085 22.5273 60.3085 22.5226 60.3069 22.5163C60.1721 21.5756 60.3775 20.7757 60.8856 20.2654C61.1035 20.0478 61.334 19.9382 61.5693 19.9382C61.7904 19.9382 62.0146 20.0353 62.2294 20.2325C62.6811 20.6426 62.968 21.3548 62.9978 22.1375C63.0276 22.9061 62.8018 23.623 62.3957 24.0551ZM66.6735 26.2231C66.2972 26.6222 65.8361 26.6598 65.408 26.3264C64.9407 25.9632 64.6804 25.4467 64.5879 24.7016C64.5879 24.6953 64.5863 24.6906 64.5848 24.6843C64.5268 24.2774 64.533 23.897 64.5989 23.5557C64.6177 23.4837 64.6365 23.4086 64.6522 23.335C64.7526 22.9812 64.9251 22.676 65.165 22.4349C65.3829 22.2158 65.6135 22.1078 65.8487 22.1078C66.0698 22.1078 66.294 22.2048 66.5104 22.4021C66.9621 22.8122 67.249 23.5244 67.2788 24.3071C67.307 25.0757 67.0812 25.7926 66.6735 26.2231ZM70.4951 29.7185C70.1187 30.1177 69.6577 30.1552 69.2296 29.8218C68.7623 29.4587 68.502 28.9421 68.4094 28.197C68.4094 28.1907 68.4079 28.186 68.4079 28.1798C68.273 27.239 68.4784 26.4391 68.9865 25.9288C69.2045 25.7096 69.435 25.6001 69.6702 25.6001C69.8913 25.6001 70.1156 25.6971 70.332 25.8944C70.7836 26.3045 71.0706 27.0167 71.1004 27.7994C71.127 28.5711 70.9028 29.288 70.4951 29.7185ZM57.2287 26.9807C52.9665 25.9257 49.2704 28.0811 48.0316 32.3452C47.2412 35.061 47.6411 37.6157 49.2155 39.9355C49.5464 40.4223 49.8788 40.9092 50.2128 41.3944C51.1286 42.7281 52.0742 44.1087 52.9477 45.4909C55.1211 48.9331 55.7687 52.5084 54.8718 56.1181C54.5566 57.3876 53.7725 58.6414 53.0135 59.8561C52.9022 60.0346 52.7909 60.213 52.6826 60.3899C51.1804 62.824 50.7209 65.4209 51.3168 68.104C52.1275 71.7512 55.5414 74.464 59.2108 74.464C59.3676 74.464 59.5244 74.4593 59.6828 74.4483C61.6931 74.3199 63.4745 73.5529 64.8341 72.2302C66.2047 70.8965 67.0154 69.123 67.1816 67.1006C67.2208 66.6278 67.2428 66.1207 67.249 65.5509C67.2537 65.0641 66.8648 64.6665 66.3771 64.6602C66.374 64.6602 66.3709 64.6602 66.3662 64.6602C65.8848 64.6602 65.4896 65.0468 65.4849 65.529C65.4786 66.0565 65.4582 66.5245 65.4222 66.9566C65.1587 70.1796 62.8065 72.4822 59.5699 72.6889C56.6202 72.8767 53.6894 70.6476 53.037 67.7189C52.5368 65.4663 52.9116 63.3703 54.1818 61.3103C54.29 61.1366 54.3982 60.9613 54.508 60.786C55.3391 59.4554 56.2 58.0795 56.5826 56.5407C57.6003 52.4473 56.879 48.4134 54.439 44.5502C53.5483 43.1398 52.5917 41.7466 51.6665 40.3989C51.3356 39.9152 51.0032 39.4315 50.6739 38.9478C49.3896 37.0553 49.0791 35.0563 49.7236 32.8351C50.7099 29.4414 53.4228 27.851 56.8021 28.6885C60.1078 29.5072 63.0872 31.2651 65.6574 33.9121C68.2542 36.5872 69.3378 39.4628 68.9724 42.7062C68.7356 44.8022 68.2824 46.7667 67.6222 48.5449C66.0369 52.8262 65.3234 57.2404 65.441 62.0429C65.452 62.5297 65.8534 62.9117 66.3442 62.9007C66.8303 62.8882 67.2161 62.4844 67.2036 61.9991C67.0906 57.4236 67.7681 53.2222 69.2751 49.1554C69.9839 47.2441 70.47 45.1387 70.7224 42.9019C71.1458 39.156 69.8662 35.72 66.9213 32.6864C64.1206 29.7999 60.8589 27.8792 57.2287 26.9807ZM21.1209 31.2103C21.9567 30.5607 22.4569 29.6214 22.6074 28.4193C22.6169 28.3551 22.6231 28.2909 22.6294 28.2267C22.8395 28.2815 23.0544 28.3081 23.2708 28.3081C23.8478 28.3081 24.4312 28.1125 24.944 27.7133C25.5681 27.228 26.004 26.5815 26.2486 25.7848C26.6548 26.0196 27.1001 26.1385 27.5502 26.1385C28.1273 26.1385 28.7106 25.9429 29.2218 25.5437C29.8334 25.0679 30.2631 24.437 30.5108 23.6622C30.928 23.9126 31.389 24.041 31.8532 24.041C32.4302 24.041 33.0136 23.8453 33.5248 23.4462C33.7506 23.2708 33.9513 23.0736 34.1285 22.856C34.312 23.1707 34.5268 23.4618 34.7699 23.7185C35.4708 24.4605 36.3631 24.8393 37.2679 24.8393C38.0034 24.8393 38.7451 24.5889 39.3974 24.0817C40.5108 23.216 41.149 22.0092 41.3513 20.3922C41.6336 18.3995 41.1334 16.6432 39.9416 15.4441C38.5334 14.0275 36.5952 13.9789 35.1164 15.322C34.6366 15.7587 34.243 16.3082 33.9482 16.9343C33.9435 16.9296 33.9403 16.9249 33.9356 16.9218C32.8489 15.8292 31.2918 15.79 30.1517 16.8263C29.6593 17.274 29.2861 17.8766 29.0572 18.5654C28.041 17.944 26.8006 18.0567 25.8472 18.9223C25.3438 19.3809 24.9628 19.9993 24.7385 20.7084C23.7302 20.1151 22.5087 20.2372 21.5693 21.0919C20.8307 21.7634 20.3587 22.784 20.2474 23.9236C19.399 23.6982 18.4864 23.9158 17.7478 24.5873C16.9418 25.3199 16.4525 26.4641 16.4039 27.7274C16.3553 28.9781 16.7505 30.1411 17.4859 30.9207C18.0363 31.503 18.7373 31.8004 19.4477 31.8004C20.0263 31.8051 20.6096 31.6094 21.1209 31.2103ZM35.107 19.5594C35.1525 18.365 35.5994 17.2709 36.3035 16.6306C36.6752 16.2925 37.0766 16.125 37.4749 16.125C37.8967 16.125 38.3139 16.3144 38.6902 16.6917C39.4853 17.4916 39.8099 18.7219 39.6044 20.1589C39.6044 20.1652 39.6029 20.1699 39.6013 20.1761C39.4586 21.3251 39.0493 22.1266 38.3139 22.6995C37.5706 23.2771 36.705 23.2082 36.0526 22.5179C35.4159 21.8401 35.0631 20.735 35.107 19.5594ZM30.572 20.04C30.6018 19.2573 30.8888 18.545 31.3404 18.1349C31.5568 17.9393 31.7794 17.8406 32.0006 17.8406C32.2358 17.8406 32.4663 17.9502 32.6843 18.1678C33.1908 18.6781 33.3978 19.478 33.2629 20.4188C33.2629 20.425 33.2613 20.4297 33.2613 20.436C33.1688 21.1827 32.9085 21.6977 32.4396 22.0624C32.0115 22.3942 31.5505 22.3582 31.1742 21.9591C30.768 21.527 30.5422 20.8101 30.572 20.04ZM26.269 22.136C26.2988 21.3533 26.5858 20.6411 27.0374 20.2309C27.2538 20.0353 27.4765 19.9366 27.6976 19.9366C27.9313 19.9366 28.1633 20.0462 28.3813 20.2654C28.8894 20.7757 29.0932 21.5756 28.9599 22.5163C28.9599 22.5226 28.9584 22.5273 28.9568 22.5336C28.8643 23.2787 28.604 23.7952 28.1367 24.1584C27.7086 24.4918 27.2475 24.4542 26.8712 24.0551C26.465 23.623 26.2392 22.9061 26.269 22.136ZM21.9896 24.3055C22.0194 23.5229 22.3064 22.8106 22.758 22.4005C22.9744 22.2048 23.1971 22.1062 23.4197 22.1062C23.6534 22.1062 23.8855 22.2158 24.1034 22.4334C24.3434 22.6744 24.5143 22.9797 24.6147 23.335C24.6303 23.4101 24.6476 23.4837 24.668 23.5557C24.7338 23.897 24.7401 24.2774 24.6821 24.6843C24.6821 24.6906 24.6805 24.6953 24.6789 24.7016C24.5864 25.4482 24.3261 25.9632 23.8588 26.328C23.4307 26.6598 22.9697 26.6238 22.5933 26.2246C22.1856 25.7926 21.9598 25.0757 21.9896 24.3055ZM18.1681 27.8009C18.1979 27.0183 18.4848 26.306 18.9364 25.8959C19.1513 25.7003 19.3755 25.6016 19.5966 25.6016C19.8318 25.6016 20.0624 25.7112 20.2803 25.9288C20.7868 26.4391 20.9938 27.239 20.859 28.1798C20.859 28.186 20.8574 28.1907 20.8558 28.197C20.7633 28.9421 20.503 29.4587 20.0357 29.8218C19.6076 30.1552 19.1466 30.1177 18.7702 29.7185C18.3641 29.288 18.1398 28.5711 18.1681 27.8009ZM32.0382 26.9807C28.408 27.8792 25.1447 29.7999 22.3424 32.6864C19.3975 35.72 18.1194 39.1575 18.5413 42.9019C18.7922 45.1293 19.2767 47.2253 19.9808 49.1319L21.0644 52.6305C21.8061 55.5984 22.1417 58.7526 22.0617 61.9991C22.0617 62.0069 22.0617 62.0132 22.0617 62.021C22.0617 62.5329 22.0508 63.0588 22.0398 63.5676C22.0147 64.7212 21.9896 65.914 22.0868 67.1006C22.2515 69.123 23.0638 70.8965 24.4327 72.2302C25.7923 73.5529 27.5737 74.3199 29.5841 74.4483C29.7424 74.4577 29.8993 74.4624 30.0561 74.4624C33.7271 74.4624 37.1393 71.7496 37.9501 68.1024C38.1147 67.3635 38.1994 66.6231 38.2041 65.8999C38.2072 65.4131 37.8136 65.0171 37.3275 65.014C36.8429 65.0061 36.4431 65.4022 36.4399 65.889C36.4368 66.4869 36.3647 67.1021 36.2267 67.7204C35.5759 70.6476 32.6451 72.8783 29.6938 72.6889C26.4572 72.4822 24.105 70.178 23.8416 66.9566C23.7522 65.8608 23.7741 64.7651 23.7992 63.6051C23.8102 63.0901 23.8212 62.5595 23.8212 62.032C23.9043 58.6211 23.5499 55.3072 22.7658 52.1797C22.7627 52.164 22.758 52.1484 22.7533 52.1327L21.6556 48.5888C21.6509 48.5731 21.6462 48.559 21.6399 48.5434C20.9813 46.7651 20.5265 44.8006 20.2913 42.7046C19.9259 39.4628 21.0095 36.5857 23.6063 33.9121C26.1765 31.2651 29.156 29.5072 32.46 28.6885C35.8409 27.851 38.5522 29.4399 39.5386 32.8351C40.1846 35.0563 39.8726 37.0553 38.5883 38.9478C38.259 39.4331 37.9281 39.9152 37.5957 40.3989C36.6705 41.7466 35.7155 43.1398 34.8248 44.5502C32.3847 48.4134 31.6634 52.4473 32.6811 56.5407C33.0637 58.081 33.9247 59.4554 34.7558 60.786C34.8655 60.9613 34.9753 61.1366 35.0819 61.3103C35.3281 61.7095 35.543 62.1149 35.7217 62.5188C35.9193 62.9634 36.4399 63.1637 36.8853 62.9681C37.3306 62.7724 37.5314 62.2527 37.3353 61.8066C37.1252 61.3307 36.8727 60.8533 36.5842 60.3868C36.4744 60.2099 36.3631 60.0315 36.2518 59.853C35.4928 58.6399 34.7087 57.3844 34.3935 56.115C33.4966 52.5053 34.1442 48.9284 36.3176 45.4878C37.1911 44.1056 38.1367 42.725 39.0524 41.3913C39.3865 40.9045 39.7189 40.4192 40.0498 39.9324C41.6257 37.6125 42.0241 35.0579 41.2337 32.3405C39.998 28.0796 36.3004 25.9257 32.0382 26.9807Z" fill="white"/>
<path d="M32.2393 68.4403C30.9628 68.0881 29.5986 68.3056 28.4946 69.0351C27.3906 69.7646 26.6583 70.9339 26.4858 72.2441C26.4215 72.7278 26.7618 73.1708 27.2448 73.2349C27.7294 73.2991 28.1731 72.9594 28.2374 72.4757C28.3441 71.6712 28.7941 70.9542 29.47 70.5065C30.1474 70.0588 30.9848 69.9258 31.7673 70.1418C33.0438 70.494 34.408 70.2764 35.512 69.547C36.616 68.8175 37.3483 67.6482 37.5223 66.338C37.5506 66.1173 37.4973 65.906 37.3828 65.7354C37.2464 65.5303 37.0252 65.3831 36.7618 65.3471C36.2788 65.283 35.8335 65.6226 35.7692 66.1063C35.6625 66.9109 35.2141 67.6279 34.5366 68.0756C33.8592 68.5232 33.0218 68.6563 32.2393 68.4403Z" fill="white"/>
<path d="M62.4165 56.7533C61.1401 56.4011 59.7758 56.6186 58.6718 57.3481C57.5679 58.0775 56.8356 59.2468 56.6631 60.557C56.5988 61.0407 56.9391 61.4837 57.422 61.5479C57.9066 61.6121 58.3504 61.2724 58.4147 60.7887C58.5213 59.9841 58.9714 59.2672 59.6472 58.8195C60.3247 58.3718 61.162 58.2388 61.9445 58.4548C63.221 58.807 64.5853 58.5894 65.6892 57.8599C66.7932 57.1305 67.5255 55.9612 67.6996 54.651C67.7278 54.4303 67.6745 54.219 67.56 54.0483C67.4236 53.8433 67.2025 53.6961 66.939 53.6601C66.4561 53.5959 66.0107 53.9356 65.9464 54.4193C65.8398 55.2239 65.3913 55.9408 64.7139 56.3885C64.038 56.8362 63.199 56.9677 62.4165 56.7533Z" fill="white"/>
<path d="M27.3119 64.984C27.7432 63.7349 27.613 62.3621 26.9513 61.2162C26.2911 60.0704 25.1667 59.2689 23.8668 59.0138C23.3885 58.9199 22.9243 59.2314 22.8302 59.7088C22.7361 60.1878 23.0482 60.6511 23.5265 60.7451C24.3231 60.9016 25.0131 61.3947 25.4192 62.0975C25.8238 62.8004 25.9053 63.6425 25.6403 64.4095C25.2091 65.6587 25.3408 67.0331 26.001 68.1773C26.6612 69.3232 27.7855 70.1246 29.0839 70.3798C29.3019 70.4221 29.5167 70.3813 29.6955 70.2796C29.9088 70.1559 30.0703 69.9446 30.122 69.6848C30.2161 69.2073 29.9041 68.744 29.4258 68.6501C28.6292 68.4935 27.9392 68.0005 27.5331 67.2992C27.1285 66.5932 27.0469 65.7511 27.3119 64.984Z" fill="white"/>
<path d="M36.5014 33.8165C36.9326 32.5674 36.8025 31.1946 36.1407 30.0487C35.4805 28.9029 34.3562 28.1015 33.0562 27.8463C32.5779 27.7524 32.1138 28.0639 32.0197 28.5413C31.9256 29.0203 32.2376 29.4837 32.7159 29.5776C33.5125 29.7341 34.2025 30.2272 34.6087 30.93C35.0132 31.6329 35.0948 32.475 34.8298 33.2421C34.3985 34.4912 34.5302 35.8656 35.1904 37.0098C35.8506 38.1557 36.975 38.9571 38.2734 39.2123C38.4914 39.2546 38.7062 39.2139 38.885 39.1121C39.0982 38.9884 39.2597 38.7771 39.3115 38.5173C39.4056 38.0398 39.0935 37.5765 38.6152 37.4826C37.8186 37.326 37.1286 36.833 36.7225 36.1317C36.3179 35.4257 36.2364 34.5836 36.5014 33.8165Z" fill="white"/>
<path d="M28.4882 39.7007C26.7523 38.8914 24.72 38.8601 22.9135 39.6162C21.1054 40.3722 19.7035 41.8405 19.0653 43.6454C18.8301 44.3091 19.1892 45.0182 19.8682 45.2279C20.5472 45.4377 21.2873 45.0683 21.5225 44.403C21.9146 43.2963 22.7755 42.3946 23.8841 41.9297C24.9928 41.4648 26.241 41.4852 27.3058 41.9814C29.0417 42.7907 31.074 42.8204 32.8821 42.0644C34.6901 41.3083 36.092 39.84 36.7303 38.0367C36.8369 37.733 36.8212 37.4231 36.7083 37.1539C36.5719 36.8314 36.2975 36.5684 35.9258 36.4542C35.2484 36.2444 34.5067 36.6154 34.2714 37.2791C33.8794 38.3858 33.0185 39.2874 31.9098 39.7508C30.8012 40.2172 29.5529 40.1985 28.4882 39.7007Z" fill="white"/>
<path d="M61.5159 73.1507C61.726 72.5511 61.4092 71.8952 60.8086 71.6855C59.8097 71.3364 59.0116 70.5741 58.6195 69.5926C58.2259 68.6111 58.2777 67.5091 58.7622 66.5684C59.551 65.0359 59.6357 63.2404 58.9959 61.6422C58.3561 60.0424 57.0545 58.7995 55.4268 58.2313C54.8278 58.0216 54.1692 58.3378 53.9606 58.9373C53.7505 59.5368 54.0657 60.1927 54.6663 60.4025C55.6667 60.7515 56.4634 61.5139 56.857 62.4969C57.249 63.4784 57.1972 64.5804 56.7143 65.5196C55.927 67.0505 55.8424 68.8475 56.4822 70.4473C57.122 72.0455 58.4235 73.29 60.0512 73.8582C60.3241 73.9537 60.6095 73.9412 60.8588 73.841C61.1536 73.7189 61.4014 73.4762 61.5159 73.1507Z" fill="white"/>
</svg>
