<svg width="89" height="89" viewBox="0 0 89 89" fill="none" xmlns="http://www.w3.org/2000/svg">
<circle cx="44.7241" cy="44.7839" r="42.9985" stroke="white" stroke-width="2"/>
<path d="M69.0964 19.6924H54.3244C53.7808 19.6924 53.3396 20.134 53.3396 20.6782V46.408C53.344 47.9771 52.7208 49.4827 51.6091 50.5893L42.0843 60.1245C40.4629 61.7469 39.5524 63.9482 39.5518 66.2433C39.5518 68.5385 40.4629 70.7391 42.0837 72.3622C45.4599 75.742 50.9334 75.742 54.3096 72.3629L66.3311 60.3292C68.7405 57.9314 70.0908 54.6679 70.0812 51.267V20.6782C70.0812 20.134 69.64 19.6924 69.0964 19.6924ZM68.1116 21.664V25.6072H55.3092V21.664H68.1116ZM68.1116 27.5788V29.5504H55.3092V27.5788H68.1116ZM53.0016 51.9845C54.4841 50.5084 55.3149 48.5002 55.3092 46.408V31.522H68.1116V48.2807H67.7736C65.1225 48.2807 62.7318 49.88 61.7174 52.3317C60.7024 54.784 61.2634 57.6067 63.1382 59.4833L63.7647 60.1103L56.294 67.5886L46.8537 58.1387L53.0016 51.9845ZM44.3917 60.6032L45.4612 59.5326L54.9015 68.9826L53.832 70.0531L44.3917 60.6032ZM41.522 66.244C41.5176 64.705 42.0484 63.2122 43.0235 62.0216L52.415 71.4227C50.4172 73.0523 47.6609 73.386 45.3337 72.2794C43.0056 71.173 41.522 68.8233 41.522 66.244ZM65.1463 58.7054L64.5308 58.0893C63.2189 56.7762 62.8266 54.8019 63.5364 53.0865C64.2467 51.371 65.9189 50.2523 67.7736 50.2523H68.1116V51.267C68.116 54.0356 67.0544 56.7004 65.1463 58.7054Z" fill="white"/>
<path d="M33.6287 66.4481L45.6501 54.4144C48.0596 52.0166 49.4099 48.7531 49.4002 45.3522V14.7634C49.4002 14.2192 48.959 13.7776 48.4154 13.7776H33.6434C33.0998 13.7776 32.6586 14.2192 32.6586 14.7634V40.4932C32.6631 42.0623 32.0398 43.5679 30.9282 44.6745L21.4034 54.2104C18.0277 57.5894 18.0277 63.0685 21.4034 66.4481C24.7796 69.8273 30.2531 69.8273 33.6287 66.4481ZM32.6586 64.6313L23.2184 55.1814L24.7802 53.6179L34.2205 63.0678L32.6586 64.6313ZM44.4654 52.7906L43.8499 52.1745C42.538 50.8614 42.1457 48.8872 42.8554 47.1717C43.5658 45.4563 45.2379 44.3375 47.0926 44.3375H47.4306V45.3522C47.435 48.1209 46.3734 50.7857 44.4654 52.7906ZM47.4306 23.6356H34.6282V21.664H47.4306V23.6356ZM47.4306 15.7492V19.6924H34.6282V15.7492H47.4306ZM32.3207 46.0698C33.8031 44.5937 34.634 42.5854 34.6282 40.4932V25.6072H47.4306V42.3659H47.0926C44.4416 42.3659 42.0508 43.9652 41.0365 46.4169C40.0215 48.8693 40.5825 51.692 42.4572 53.5686L43.0837 54.1956L35.613 61.6739L26.1727 52.224L32.3207 46.0698ZM20.8411 60.3292C20.8384 59.0334 21.2148 57.7658 21.9247 56.6819L31.1616 65.9283C29.1099 67.269 26.4889 67.3756 24.3346 66.2068C22.181 65.0381 20.8397 62.7822 20.8411 60.3292Z" fill="white"/>
</svg>
