<svg width="51" height="51" viewBox="0 0 51 51" fill="" xmlns="http://www.w3.org/2000/svg">
<path d="M25.3249 14.1747C23.0514 14.1747 20.829 14.8489 18.9387 16.112C17.0484 17.3751 15.575 19.1703 14.705 21.2707C13.835 23.3711 13.6073 25.6824 14.0509 27.9122C14.4944 30.142 15.5892 32.1902 17.1968 33.7978C18.8044 35.4054 20.8526 36.5001 23.0824 36.9437C25.3122 37.3872 27.6234 37.1596 29.7238 36.2895C31.8242 35.4195 33.6195 33.9462 34.8826 32.0559C36.1457 30.1655 36.8198 27.9431 36.8198 25.6696C36.8164 22.6221 35.6042 19.7003 33.4492 17.5453C31.2943 15.3904 28.3725 14.1782 25.3249 14.1747ZM25.3249 35.0746C23.4648 35.0746 21.6465 34.523 20.0998 33.4895C18.5532 32.4561 17.3477 30.9873 16.6359 29.2687C15.9241 27.5502 15.7378 25.6592 16.1007 23.8348C16.4636 22.0105 17.3593 20.3347 18.6746 19.0194C19.9899 17.7041 21.6657 16.8083 23.4901 16.4454C25.3145 16.0825 27.2055 16.2688 28.924 16.9806C30.6425 17.6925 32.1114 18.8979 33.1448 20.4445C34.1782 21.9912 34.7298 23.8095 34.7298 25.6696C34.7271 28.1631 33.7353 30.5537 31.9721 32.3169C30.209 34.08 27.8184 35.0718 25.3249 35.0746ZM36.8198 0.589844H13.83C10.2283 0.593923 6.77532 2.02649 4.22855 4.57327C1.68177 7.12005 0.249197 10.573 0.245117 14.1747V37.1645C0.249197 40.7662 1.68177 44.2192 4.22855 46.766C6.77532 49.3128 10.2283 50.7454 13.83 50.7494H36.8198C40.4215 50.7454 43.8745 49.3128 46.4213 46.766C48.9681 44.2192 50.4006 40.7662 50.4047 37.1645V14.1747C50.4006 10.573 48.9681 7.12005 46.4213 4.57327C43.8745 2.02649 40.4215 0.593923 36.8198 0.589844ZM48.3147 37.1645C48.3113 40.2121 47.0991 43.1339 44.9441 45.2889C42.7892 47.4438 39.8674 48.656 36.8198 48.6595H13.83C10.7824 48.656 7.86066 47.4438 5.7057 45.2889C3.55073 43.1339 2.33856 40.2121 2.3351 37.1645V14.1747C2.33856 11.1272 3.55073 8.20539 5.7057 6.05043C7.86066 3.89546 10.7824 2.68328 13.83 2.67983H36.8198C39.8674 2.68328 42.7892 3.89546 44.9441 6.05043C47.0991 8.20539 48.3113 11.1272 48.3147 14.1747V37.1645ZM40.9998 12.0848C40.9998 12.4981 40.8772 12.9022 40.6476 13.2459C40.4179 13.5896 40.0915 13.8575 39.7096 14.0156C39.3277 14.1738 38.9075 14.2152 38.5021 14.1346C38.0966 14.0539 37.7243 13.8549 37.432 13.5626C37.1397 13.2703 36.9406 12.8979 36.86 12.4925C36.7793 12.0871 36.8207 11.6668 36.9789 11.2849C37.1371 10.9031 37.405 10.5766 37.7487 10.347C38.0924 10.1173 38.4964 9.99477 38.9098 9.99477C39.4639 9.99546 39.9951 10.2159 40.3869 10.6077C40.7787 10.9995 40.9991 11.5307 40.9998 12.0848Z" fill="#2E95B4"/>
</svg>
