<svg width="318" height="81" viewBox="0 0 318 81" fill="" xmlns="http://www.w3.org/2000/svg">
<g clip-path="url(#clip0)">
<path d="M94.429 22.5656H105.237L112.722 47.8665C114.74 54.518 116.169 59.1493 117.939 66.1428H118.188C119.958 58.7763 121.045 54.6113 123.064 47.8665L130.3 22.5656H141.325L145.238 80.0365H136.574L135.518 55.3262C135.176 47.7111 134.927 42.1474 134.679 31.2064H134.337C133.033 37.1431 131.014 44.8515 128.623 53.3058L120.921 79.6635H114.275L106.79 54.1451C104.429 46.188 102.411 38.1067 100.858 31.1132H100.609C100.485 40.3757 100.237 47.7421 99.7708 55.8235L98.8081 80.0675H90.3916L94.429 22.5656Z" fill="white"/>
<path d="M165.984 7.7086C166.108 11.283 163.841 13.6453 160.394 13.6453C157.412 13.6453 155.176 11.283 155.176 7.7086C155.176 4.13415 157.568 1.77191 160.518 1.77191C163.841 1.77191 165.984 4.16524 165.984 7.7086ZM156.139 22.5659H165.27V80.0367H156.139V22.5659Z" fill="white"/>
<path d="M184.494 22.5656V47.4935H185.799L200.862 22.5656H211.079L193.159 48.457C200.986 49.7625 204.899 56.756 207.042 64.713C208.346 69.5929 209.899 75.6539 211.794 80.0365H202.539C200.986 76.462 199.681 71.7065 198.377 66.609C196.11 58.7763 192.911 54.1451 185.426 54.1451H184.494V80.0365H175.581V22.5656H184.494Z" fill="white"/>
<path d="M249.28 51.3164C249.28 73.5091 238.969 80.9999 230.18 80.9999C219.838 80.9999 211.546 71.6131 211.546 51.4097C211.546 30.3982 220.925 21.6019 230.77 21.6019C240.988 21.6019 249.28 31.2374 249.28 51.3164ZM220.677 51.3164C220.677 60.8276 222.354 73.7577 230.646 73.7577C238.472 73.7577 240.025 60.2059 240.025 51.3164C240.025 42.5202 238.472 28.9995 230.398 28.9995C222.23 28.9995 220.677 42.5202 220.677 51.3164Z" fill="white"/>
<path d="M263.876 22.5656V46.9029H280.864V22.5656H289.995V80.0675H280.864V54.7667H263.876V80.0675H254.745V22.5656H263.876Z" fill="white"/>
<path d="M307.418 15.1988C312.791 15.1988 317.077 19.457 317.077 24.8653C317.077 30.2425 312.822 34.594 307.356 34.594C301.983 34.594 297.635 30.2736 297.635 24.8653C297.635 19.4881 301.952 15.1988 307.356 15.1988H307.418ZM307.294 17.188C303.132 17.188 299.996 20.576 299.996 24.8653C299.996 29.1547 303.132 32.5426 307.356 32.5426C311.549 32.6048 314.655 29.1236 314.655 24.8653C314.655 20.6071 311.549 17.188 307.356 17.188H307.294ZM305.803 29.8695H303.785V20.203C304.592 20.0787 305.71 19.8922 307.232 19.8922C308.971 19.8922 309.779 20.203 310.462 20.7003C311.021 21.0733 311.456 21.8193 311.456 22.7517C311.456 23.8707 310.524 24.6788 309.406 24.9897V25.114C310.4 25.4248 310.835 26.2329 311.145 27.5384C311.456 28.9682 311.642 29.5276 311.828 29.9006H309.654C309.344 29.5276 309.157 28.7195 308.909 27.5384C308.723 26.4816 308.101 26.0464 306.859 26.0464H305.803V29.8695ZM305.865 24.4302H306.921C308.164 24.4302 309.157 23.995 309.157 23.0004C309.157 22.1301 308.536 21.5706 307.108 21.5706C306.487 21.5706 306.114 21.6328 305.865 21.6328V24.4302Z" fill="white"/>
<path d="M44.9547 0V80.0675H35.7928V7.95702H18.9599V35.2782C18.9599 56.0721 18.2456 72.2038 9.239 78.5134C7.22029 80.0675 4.73572 81 1.87846 81L0.0771484 73.2916C1.63 73.0741 3.18286 72.3281 4.36303 71.2713C9.239 66.982 10.5434 56.3208 10.5434 36.5837V0H44.9547Z" fill="white"/>
<path d="M84.2419 66.9819C84.2419 71.3645 84.2419 76.3687 84.832 80.0364H76.5087L75.9186 73.9754H75.577C73.0924 78.3579 69.055 80.9999 64.179 80.9999C56.4768 80.9999 50.5449 74.4727 50.5449 64.6196C50.5449 50.2597 62.0671 43.8257 74.9869 43.7014V41.9297C74.9869 34.2213 73.0924 28.8752 65.8561 28.8752C62.2845 28.8752 59.0856 30.0563 56.3526 31.828L54.3339 25.4251C56.6942 23.6534 62.0361 21.6331 67.7506 21.6331C79.2728 21.6331 84.2419 29.2482 84.2419 42.1783V66.9819ZM75.2043 50.3529C70.4525 50.3529 59.4273 51.1922 59.4273 63.6561C59.4273 71.1469 63.2162 73.8821 66.4462 73.8821C70.4836 73.8821 73.9309 70.8982 74.9869 65.2102C75.2353 64.1534 75.2353 62.9412 75.2353 62.0087V50.3529H75.2043Z" fill="white"/>
</g>
<defs>
<clipPath id="clip0">
<rect width="317" height="81" fill="white" transform="translate(0.0771484)"/>
</clipPath>
</defs>
</svg>
