<svg width="51" height="51" viewBox="0 0 51 51" fill="" xmlns="http://www.w3.org/2000/svg">
<path fill-rule="evenodd" clip-rule="evenodd" d="M0.323243 4.78046C0.323243 3.66904 0.764752 2.60314 1.55064 1.81725C2.33653 1.03136 3.40243 0.589849 4.51385 0.589849H46.2877C46.8384 0.58895 47.384 0.696696 47.8931 0.906919C48.4022 1.11714 48.8648 1.42571 49.2545 1.81497C49.6442 2.20422 49.9532 2.66651 50.164 3.17537C50.3748 3.68423 50.4831 4.22967 50.4828 4.78046V46.5543C50.4834 47.1052 50.3754 47.6508 50.1649 48.1599C49.9545 48.669 49.6457 49.1316 49.2562 49.5212C48.8668 49.9109 48.4044 50.2199 47.8954 50.4307C47.3864 50.6414 46.8408 50.7497 46.2899 50.7494H4.51385C3.96334 50.7494 3.41822 50.641 2.90965 50.4302C2.40107 50.2195 1.939 49.9106 1.54984 49.5212C1.16067 49.1319 0.852043 48.6696 0.641579 48.1609C0.431116 47.6522 0.322943 47.1071 0.323243 46.5565V4.78046ZM20.1773 19.7143H26.9694V23.1252C27.9498 21.1644 30.4578 19.3997 34.2266 19.3997C41.4518 19.3997 43.1641 23.3053 43.1641 30.4713V43.7453H35.8522V32.1037C35.8522 28.0226 34.8718 25.7198 32.3821 25.7198C28.9279 25.7198 27.4915 28.2027 27.4915 32.1037V43.7453H20.1773V19.7143ZM7.63742 43.433H14.9516V19.3997H7.63742V43.4307V43.433ZM15.9981 11.5611C16.0119 12.1874 15.9005 12.8101 15.6703 13.3927C15.4402 13.9753 15.096 14.506 14.658 14.9538C14.22 15.4016 13.6969 15.7574 13.1195 16.0003C12.5421 16.2432 11.9221 16.3683 11.2957 16.3683C10.6693 16.3683 10.0492 16.2432 9.47177 16.0003C8.89438 15.7574 8.37132 15.4016 7.93329 14.9538C7.49526 14.506 7.15109 13.9753 6.92096 13.3927C6.69084 12.8101 6.5794 12.1874 6.59319 11.5611C6.62026 10.3319 7.12758 9.1621 8.00652 8.30231C8.88545 7.44252 10.0661 6.96107 11.2957 6.96107C12.5252 6.96107 13.7059 7.44252 14.5848 8.30231C15.4637 9.1621 15.971 10.3319 15.9981 11.5611Z" fill="#2E95B4"/>
</svg>
