<svg width="177" height="81" viewBox="0 0 177 81" fill="" xmlns="http://www.w3.org/2000/svg">
<path d="M20.2092 34.6102V47.4752C23.2249 47.4752 27.9005 46.4239 27.9005 41.1119C27.9005 35.7723 23.1972 34.6102 20.2092 34.6102ZM14.3162 47.4752V34.6102C11.3006 34.6102 6.62492 35.7723 6.62492 41.0842C6.62492 46.3962 11.3006 47.4752 14.3162 47.4752ZM20.2092 29.8516C25.2445 29.8516 33.7934 32.5076 33.7934 41.0842C33.7934 49.7162 25.2445 52.2062 20.2092 52.2062V55.2495H14.3162V52.2062C9.30857 52.2062 0.731934 49.7162 0.731934 41.0842C0.731934 32.5076 9.2809 29.8516 14.3162 29.8516V26.9744H20.2092V29.8516Z" fill="white"/>
<path d="M63.2306 45.539C63.2306 47.8354 64.1713 51.3766 67.4083 51.3766C70.6453 51.3766 71.9179 48.6931 71.9179 45.8158C71.9179 42.7448 71.0326 39.646 67.5743 39.646C64.3373 39.6184 63.2306 42.468 63.2306 45.539ZM63.2306 38.5395H63.286C64.2266 37.0178 65.6376 35.2472 69.013 35.2472C73.2736 35.2472 77.0639 38.5948 77.0639 45.2347C77.0639 50.4914 74.6569 55.4991 68.9023 55.4991C65.361 55.4991 64.116 53.5624 63.5073 52.5111L63.3967 52.4834V62.72H58.3613V35.7174H63.2306V38.5395Z" fill="white"/>
<path d="M93.0828 48.8592H93.2488L97.8137 35.7453H105.56V55.0288H100.221V43.2153C100.221 42.1916 100.387 40.9743 100.387 40.9743H100.221L95.1855 55.0565H91.0908L86.0554 40.9743H85.8895C85.8895 40.9743 86.0554 42.1916 86.0554 43.2153V55.0288H80.7158V35.7453H88.4348L93.0828 48.8592Z" fill="white"/>
<path d="M48.8166 48.112C48.8166 50.436 46.4373 51.9023 44.1133 51.9023C43.0897 51.9023 41.651 51.3767 41.651 49.5784C41.651 47.5034 43.2556 47.0053 45.2476 46.701C47.4056 46.369 48.3186 46.0647 48.8443 45.6773V48.112H48.8166ZM53.9903 51.266V40.8357C53.9903 36.077 48.8443 35.2472 45.9946 35.2472C42.066 35.2472 37.999 36.0218 37.1137 41.2231H42.232C42.5087 40.2824 43.2556 39.2864 45.3306 39.2864C46.6863 39.2864 48.8166 39.3971 48.8166 41.555C48.8166 42.468 47.9866 43.049 45.7457 43.2427C40.6827 43.63 36.3667 45.4561 36.3667 49.9104C36.3667 53.8667 39.41 55.5543 42.4533 55.5543C46.0223 55.5543 47.7377 53.922 48.955 52.76C49.0657 53.8113 49.1486 54.1157 49.453 55.0563H55.1523V54.2541C54.4883 54.0327 53.9903 53.507 53.9903 51.266Z" fill="white"/>
<path d="M122.991 48.112C122.991 50.436 120.611 51.9023 118.287 51.9023C117.236 51.9023 115.825 51.3767 115.825 49.5784C115.825 47.5034 117.43 47.0053 119.422 46.701C121.58 46.369 122.493 46.0647 122.991 45.6773V48.112ZM128.164 51.266V40.8357C128.164 36.077 122.991 35.2472 120.169 35.2472C116.24 35.2472 112.173 36.0218 111.288 41.2231H116.434C116.71 40.2824 117.43 39.2864 119.532 39.2864C120.888 39.2864 123.018 39.3971 123.018 41.555C123.018 42.468 122.188 43.049 119.947 43.2427C114.884 43.63 110.568 45.4561 110.568 49.9104C110.568 53.8667 113.612 55.5543 116.655 55.5543C120.224 55.5543 121.967 53.922 123.129 52.76C123.24 53.8113 123.323 54.1157 123.627 55.0563H129.299V54.2541C128.69 54.0327 128.164 53.507 128.164 51.266Z" fill="white"/>
<path d="M153.479 30.4052H147.282L136.077 45.6218L168.281 75.2803H175.557L142.468 45.1791L153.479 30.4052Z" fill="white"/>
<path d="M136.907 0.774414H131.872V55.0285H136.907V0.774414Z" fill="white"/>
<path d="M168.834 9.96001H167.257V7.96793H168.474C169.194 7.96793 170.107 8.05101 170.107 8.90867C170.134 9.82167 169.636 9.96001 168.834 9.96001ZM172.016 9.07466C172.016 7.16567 170.771 6.52939 168.613 6.52939H165.459V14.94H167.257V11.3987H168.087L170.024 14.94H172.154L170.024 11.2603C171.13 11.1773 172.016 10.624 172.016 9.07466ZM168.557 16.7383C165.459 16.7383 162.996 14.3312 162.996 10.7346C162.996 7.1656 165.486 4.75869 168.557 4.75869C171.573 4.75869 174.118 7.1656 174.118 10.7346C174.118 14.3312 171.573 16.7383 168.557 16.7383ZM168.557 2.9603C164.435 2.9603 160.755 5.83761 160.755 10.7346C160.755 15.6316 164.435 18.509 168.557 18.509C172.68 18.509 176.359 15.6316 176.359 10.7346C176.359 5.83761 172.68 2.9603 168.557 2.9603Z" fill="white"/>
<path d="M134.223 8.38254C118.73 8.38254 105.533 18.1212 100.387 31.8162H104.73C109.627 20.4176 120.971 12.4219 134.195 12.3942C151.874 12.4496 166.205 26.7531 166.233 44.4596C166.205 62.1662 151.874 76.4975 134.195 76.4975C121.773 76.4699 111.011 69.415 105.699 59.0953H101.217C106.805 71.7113 119.477 80.5092 134.195 80.5092C154.115 80.5092 170.272 64.352 170.272 44.4321C170.3 24.5399 154.143 8.38254 134.223 8.38254Z" fill="white"/>
</svg>
