<svg width="54" height="54" viewBox="0 0 54 54" fill="" xmlns="http://www.w3.org/2000/svg">
<g clip-path="url(#clip0)">
<path d="M51.802 15.0323L38.2995 1.00186C38.1073 0.802285 37.8421 0.689453 37.5651 0.689453H17.4406C15.1884 0.689453 13.3561 2.52106 13.3561 4.77232V19.0356H5.20042C3.51539 19.0356 2.14453 20.4061 2.14453 22.0907V37.3845C2.14453 39.069 3.51539 40.4395 5.20042 40.4395H13.3561V49.6137C13.3561 51.8611 15.1884 53.6895 17.4406 53.6895H48.0024C50.2546 53.6895 52.0869 51.8621 52.0869 49.616V15.7391C52.0869 15.4755 51.9847 15.2222 51.802 15.0323ZM37.8177 3.441L48.902 14.9587H37.8177V3.441ZM5.20042 38.401C4.63936 38.401 4.18306 37.945 4.18306 37.3845V22.0907C4.18306 21.5302 4.63946 21.0741 5.20042 21.0741H32.7234C33.2844 21.0741 33.7407 21.5302 33.7407 22.0907V37.3845C33.7407 37.945 33.2843 38.401 32.7234 38.401H5.20042ZM50.0484 49.616C50.0484 50.7381 49.1305 51.651 48.0023 51.651H17.4406C16.3124 51.651 15.3945 50.7372 15.3945 49.6138V40.4395H32.7234C34.4084 40.4395 35.7792 39.069 35.7792 37.3845V22.0907C35.7792 20.4061 34.4084 19.0356 32.7234 19.0356H15.3945V4.77232C15.3945 3.64493 16.3124 2.72788 17.4406 2.72788H35.7791V15.9779C35.7791 16.5408 36.2355 16.9971 36.7984 16.9971H50.0484V49.616Z" fill="#258DB0"/>
<path d="M14.3294 26.5572C13.991 26.1173 13.5709 25.8316 13.0693 25.7002C12.7428 25.6126 12.0421 25.5688 10.9671 25.5688H8.13037V34.3239H9.89811V31.0213H11.0508C11.851 31.0213 12.4622 30.9795 12.8842 30.8959C13.1948 30.8282 13.5003 30.6899 13.801 30.4808C14.1016 30.2718 14.3494 29.9841 14.5445 29.6179C14.7396 29.2516 14.8371 28.7997 14.8371 28.2622C14.837 27.5655 14.6678 26.9972 14.3294 26.5572ZM12.8155 28.967C12.6822 29.1621 12.498 29.3053 12.263 29.397C12.028 29.4886 11.5623 29.5343 10.8656 29.5343H9.89811V27.0499H10.7521C11.3891 27.0499 11.8131 27.0698 12.0241 27.1097C12.3107 27.1614 12.5477 27.2908 12.7347 27.4979C12.9219 27.7049 13.0155 27.9677 13.0155 28.2861C13.0156 28.5449 12.9488 28.7718 12.8155 28.967Z" fill="#258DB0"/>
<path d="M23.3353 27.9607C23.1442 27.4013 22.8654 26.9285 22.4992 26.5423C22.1329 26.1561 21.6929 25.8874 21.1793 25.736C20.7972 25.6245 20.2417 25.5688 19.5132 25.5688H16.2822V34.3239H19.6087C20.2617 34.3239 20.7832 34.2622 21.1733 34.1387C21.695 33.9715 22.109 33.7386 22.4155 33.44C22.8216 33.0458 23.1341 32.5303 23.3532 31.8932C23.5324 31.3716 23.6219 30.7505 23.6219 30.03C23.6219 29.2098 23.5264 28.5201 23.3353 27.9607ZM21.6152 31.5559C21.4958 31.9481 21.3416 32.2298 21.1524 32.4009C20.9633 32.5721 20.7254 32.6935 20.4388 32.7651C20.2199 32.8209 19.8635 32.8488 19.3698 32.8488H18.05V27.0499H18.8442C19.5648 27.0499 20.0486 27.0778 20.2954 27.1336C20.6258 27.2052 20.8986 27.3426 21.1136 27.5457C21.3286 27.7488 21.4958 28.0314 21.6152 28.3937C21.7347 28.756 21.7944 29.2755 21.7944 29.9524C21.7944 30.6292 21.7347 31.1637 21.6152 31.5559Z" fill="#258DB0"/>
<path d="M31.1347 27.0499V25.5688H25.1328V34.3239H26.9005V30.6033H30.5555V29.1222H26.9005V27.0499H31.1347Z" fill="#258DB0"/>
</g>
<defs>
<clipPath id="clip0">
<rect width="53" height="53" fill="white" transform="translate(0.615723 0.689453)"/>
</clipPath>
</defs>
</svg>
