<svg width="63" height="42" viewBox="0 0 63 42" fill="" xmlns="http://www.w3.org/2000/svg">
<path d="M61.027 6.50031C60.6765 5.24981 59.9936 4.11767 59.0511 3.22424C58.0819 2.30334 56.894 1.6446 55.5996 1.31019C50.7551 0.0332994 31.3464 0.0332997 31.3464 0.0332997C23.2551 -0.0587588 15.1658 0.346137 7.12409 1.2457C5.82964 1.60481 4.64399 2.27827 3.67262 3.20618C2.71817 4.12452 2.02684 5.25695 1.6657 6.49773C0.79817 11.1713 0.376664 15.9167 0.406866 20.6699C0.375911 25.419 0.796382 30.1628 1.6657 34.8422C2.0191 36.0778 2.70785 37.2051 3.66488 38.1157C4.6219 39.0262 5.81367 39.684 7.12409 40.0323C12.033 41.3066 31.3464 41.3066 31.3464 41.3066C39.448 41.3988 47.5476 40.9939 55.5996 40.0942C56.894 39.7598 58.0819 39.101 59.0511 38.1801C60.0055 37.2696 60.6839 36.1371 61.0244 34.9041C61.9146 30.2323 62.3475 25.485 62.3168 20.7293C62.3838 15.9535 61.9515 11.1837 61.027 6.49773V6.50031ZM25.176 29.5024V11.84L41.3242 20.6725L25.176 29.5024Z" fill="#2E95B4"/>
</svg>
